<?xml version="1.0" encoding="utf-8"?>
<!-- Generator: Adobe Illustrator 26.2.1, SVG Export Plug-In . SVG Version: 6.00 Build 0)  -->
<svg version="1.1" id="Layer_1" xmlns="http://www.w3.org/2000/svg" xmlns:xlink="http://www.w3.org/1999/xlink" x="0px" y="0px"
	 viewBox="0 0 16000 12000" style="enable-background:new 0 0 16000 12000;" xml:space="preserve">
<style type="text/css">
	.st0{fill:none;stroke:#000000;stroke-width:13.5;stroke-linecap:round;stroke-miterlimit:12;stroke-dasharray:4.5,30;}
	.st1{fill:#FFFFFF;}
	.st2{fill:none;}
	.st3{font-family:'Virgil3YOFF';}
	.st4{font-size:84px;}
	.st5{font-size:125.5825px;}
	.st6{fill:none;stroke:#000000;stroke-width:12;stroke-linecap:round;stroke-miterlimit:12;}
	.st7{fill-rule:evenodd;clip-rule:evenodd;}
	.st8{fill:none;stroke:#000000;stroke-width:13.5;stroke-linecap:round;stroke-miterlimit:12;}
	.st9{font-size:155.6291px;}
	.st10{fill:none;stroke:#000000;stroke-width:13.5;stroke-linecap:round;stroke-miterlimit:12;stroke-dasharray:24,36;}
	.st11{font-size:108px;}
	.st12{font-family:'CascadiaCode-Regular';}
	.st13{font-size:48px;}
	.st14{fill:#495057;}
	.st15{fill:none;stroke:#FFFFFF;stroke-width:12;stroke-linecap:round;stroke-miterlimit:12;}
	.st16{font-size:60px;}
	.st17{fill:none;stroke:#000000;stroke-width:6;stroke-linecap:round;stroke-miterlimit:12;}
	.st18{fill:none;stroke:#000000;stroke-width:7.5;stroke-linecap:round;stroke-miterlimit:12;stroke-dasharray:4.5,24;}
	.st19{fill:none;stroke:#000000;stroke-width:7.5;stroke-linecap:round;stroke-miterlimit:12;stroke-dasharray:24,30;}
	.st20{font-size:177.9981px;}
	.st21{font-size:189.6542px;}
	.st22{fill:none;stroke:#000000;stroke-width:3;stroke-linecap:round;stroke-miterlimit:12;}
	.st23{fill:none;stroke:#000000;stroke-width:4.5;stroke-linecap:round;stroke-miterlimit:12;stroke-dasharray:24,27;}
	.st24{fill:none;stroke:#000000;stroke-width:4.5;stroke-linecap:round;stroke-miterlimit:12;stroke-dasharray:4.5,21;}
	.st25{enable-background:new    ;}
	.st26{font-size:288.3974px;}
</style>
<g transform="translate(1232.209868667709 1386.1371430516654) rotate(0 840.2093098958334 954.6386718750005)">
	<path class="st0" d="M880.9,2952.6c1879.6,0,3759.2,0,5041.3,0 M5922.2,2952.6c0,2077,0,4154.1,0,5727.8 M5922.2,8680.4
		c-1283.1,0-2566.2,0-5041.3,0 M880.9,8680.4c0-1884.1,0-3768.2,0-5727.8"/>
</g>
<g transform="translate(1218.0906843169882 2047.4236936739328) rotate(0 16.865451388888914 456.53993055555554)">
	<path class="st1" d="M852.7,4275.2h101.2v2739.2H852.7"/>
	<path class="st2" d="M852.7,4275.2c35.4,0,70.7,0,101.2,0 M953.9,4275.2c0,907.3,0,1814.7,0,2739.2 M953.9,7014.4
		c-21.2,0-42.3,0-101.2,0 M852.7,7014.4c0-992.9,0-1985.8,0-2739.2"/>
</g>
<g transform="translate(1035.7734450442867 2497.284269222063) rotate(0 69 35.5)">
	<text transform="matrix(1 0 0 1 487.4078 5251.4023)" class="st3 st4">Database</text>
	<text transform="matrix(1 0 0 1 525.1666 5357.9023)" class="st3 st4">Manager</text>
</g>
<g transform="translate(1034.4239933750318 2436.459771454206) rotate(0 70.34945166925479 26.74441964285711)">
	<text transform="matrix(1 0 0 1 487.437 5165.7202)" class="st3 st5">Alembic</text>
</g>
<g transform="translate(1350.9687224696384 2553.9012380125687) rotate(0 316.962890625 304.462890625)">
	<path class="st6" d="M1118.4,5288.1c572.6,0,1145.3,0,1901.8,0 M1118.4,5288.1c446.8,0,893.6,0,1901.8,0 M3020.2,5288.1
		c0,640.1,0,1280.2,0,1826.8 M3020.2,5288.1c0,613,0,1226.1,0,1826.8 M3020.2,7114.9c-482,0-964,0-1901.8,0 M3020.2,7114.9
		c-602.6,0-1205.2,0-1901.8,0 M1118.4,7114.9c0-721.9,0-1443.8,0-1826.8 M1118.4,7114.9c0-610.9,0-1221.8,0-1826.8"/>
</g>
<g>
	<g transform="translate(1348.9740871897345 2395.3368640881345) rotate(0 -44.39660295758915 106.7114088123385)">
		<path class="st0" d="M1114.5,4971c-23.5,11.2-100.9,35.1-140.9,66.9c-40,31.8-78.4,77.1-99.4,124c-21,46.9-27.5,106.9-26.4,157.6
			c1,50.6,11.2,105.3,32.7,146.3c21.5,41,57.2,75.2,96.3,99.5c39.1,24.2,115.2,38.3,138.3,46"/>
	</g>
	<g transform="translate(1348.9740871897345 2395.3368640881345) rotate(0 -44.39660295758915 106.7114088123385)">
		<path class="st7" d="M1114.5,4971l-30.3,33.2l-14.6-35.1L1114.5,4971"/>
		<path class="st8" d="M1114.5,4971c-8.8,9.7-17.6,19.3-30.3,33.2 M1084.1,5004.2c-5.8-13.9-11.5-27.8-14.6-35.1 M1069.5,4969.1
			c17.2,0.7,34.4,1.4,45,1.9 M1114.5,4971L1114.5,4971"/>
	</g>
	<g transform="translate(1348.9740871897345 2395.3368640881345) rotate(0 -44.39660295758915 106.7114088123385)">
		<path class="st7" d="M1115,5611.3l-44.3,7.8l9.8-36.7L1115,5611.3"/>
		<path class="st8" d="M1115,5611.3c-12.9,2.3-25.7,4.6-44.3,7.8 M1070.7,5619.1c3.9-14.5,7.8-29,9.8-36.7 M1080.5,5582.4
			c13.2,11,26.4,22.1,34.5,28.9 M1115,5611.3L1115,5611.3"/>
	</g>
</g>
<g transform="translate(1350.6497120529716 1844.8051008597904) rotate(0 316.962890625 304.462890625)">
	<path class="st6" d="M1117.8,3869.9c564.3,0,1128.6,0,1901.8,0 M1117.8,3869.9c494.8,0,989.6,0,1901.8,0 M3019.6,3869.9
		c0,591,0,1182,0,1826.8 M3019.6,3869.9c0,428,0,855.9,0,1826.8 M3019.6,5696.7c-704.5,0-1408.9,0-1901.8,0 M3019.6,5696.7
		c-554.2,0-1108.5,0-1901.8,0 M1117.8,5696.7c0-725.8,0-1451.5,0-1826.8 M1117.8,5696.7c0-634.9,0-1269.9,0-1826.8"/>
</g>
<g transform="translate(2224.1410018037077 1174.3996312470636) rotate(0 218.31300951086934 33.14322916666664)">
	<text transform="matrix(1 0 0 1 2869.7307 2667.9929)" class="st3 st9">Backend Services</text>
</g>
<g transform="translate(1382.6185512503205 2974.3108648160114) rotate(0 285.01627604166674 48.83463541666674)">
	<path class="st10" d="M1181.7,6129c623.4,0,1246.8,0,1710.1,0 M2891.8,6129c0,102.7,0,205.4,0,293 M2891.8,6422
		c-422.3,0-844.6,0-1710.1,0 M1181.7,6422c0-62.4,0-124.7,0-293"/>
</g>
<g transform="translate(1845.4297491669872 3000.145500232678) rotate(0 33.5 23)">
	<text transform="matrix(1 0 0 1 2109.5337 6276.626)" class="st3 st11">m 0</text>
</g>
<g transform="translate(1426.9649054169872 3005.145500232678) rotate(0 82.5 17)">
	<text transform="matrix(1 0 0 1 1270.437 6271.626)" class="st12 st4">Base Model</text>
</g>
<g transform="translate(1382.0794887503205 2842.426771934067) rotate(0 285.01627604166674 48.83463541666674)">
	<path class="st10" d="M1180.7,5865.2c464.1,0,928.2,0,1710.1,0 M2890.8,5865.2c0,96.6,0,193.2,0,293 M2890.8,6158.2
		c-456.3,0-912.6,0-1710.1,0 M1180.7,6158.2c0-92.1,0-184.1,0-293"/>
</g>
<g transform="translate(1845.8138637503205 2868.2614073507334) rotate(0 26 23)">
	<text transform="matrix(1 0 0 1 2110.3196 6012.8569)" class="st3 st11">m 1</text>
</g>
<g transform="translate(1426.4258429169872 2873.2614073507334) rotate(0 90.5 17)">
	<text transform="matrix(1 0 0 1 1269.3589 6007.8569)" class="st12 st4">User Models</text>
</g>
<g transform="translate(1381.6758429169872 2710.8502962396224) rotate(0 285.01627604166674 48.83463541666674)">
	<path class="st10" d="M1179.9,5602c598.3,0,1196.6,0,1710.1,0 M2889.9,5602c0,84.4,0,168.8,0,293 M2889.9,5895
		c-372.6,0-745.3,0-1710.1,0 M1179.9,5895c0-63.6,0-127.3,0-293"/>
</g>
<g transform="translate(1845.201884583654 2736.684931656289) rotate(0 33.5 23)">
	<text transform="matrix(1 0 0 1 2107.7822 5749.7041)" class="st3 st11">m 2</text>
</g>
<g transform="translate(1426.514384583654 2741.684931656289) rotate(0 107 17)">
	<text transform="matrix(1 0 0 1 1269.536 5744.7041)" class="st12 st4">Client Models</text>
</g>
<g transform="translate(1381.272197083654 2579.694393461845) rotate(0 285.01627604166674 48.83463541666674)">
	<path class="st10" d="M1179.1,5339.7c476.6,0,953.2,0,1710.1,0 M2889.1,5339.7c0,107.7,0,215.4,0,293 M2889.1,5632.7
		c-669.4,0-1338.8,0-1710.1,0 M1179.1,5632.7c0-96.9,0-193.9,0-293"/>
</g>
<g transform="translate(1845.2982387503207 2605.730851795178) rotate(0 33 23)">
	<text transform="matrix(1 0 0 1 2108.1477 5487.7964)" class="st3 st11">m 3</text>
</g>
<g transform="translate(1426.1107387503207 2610.5290288785113) rotate(0 90.5 17)">
	<text transform="matrix(1 0 0 1 1268.7288 5482.3921)" class="st12 st4">Item Models</text>
</g>
<g transform="translate(1381.9857387503205 2267.1360601285114) rotate(0 285.01627604166674 48.83463541666674)">
	<path class="st10" d="M1180.5,4714.6c494.5,0,988.9,0,1710.1,0 M2890.6,4714.6c0,108,0,216,0,293 M2890.6,5007.6
		c-488,0-976.1,0-1710.1,0 M1180.5,5007.6c0-74.7,0-149.4,0-293"/>
</g>
<g transform="translate(1846.2969366669872 2292.720695545178) rotate(0 32 23)">
	<text transform="matrix(1 0 0 1 2110.4409 4861.7754)" class="st3 st11">t 0</text>
</g>
<g transform="translate(1426.3320929169872 2297.712883045178) rotate(0 82.5 17)">
	<text transform="matrix(1 0 0 1 1269.1714 4856.7598)" class="st12 st4">Base Table</text>
</g>
<g transform="translate(1381.8763637503205 2135.715834434067) rotate(0 285.01627604166674 48.83463541666674)">
	<path class="st10" d="M1180.3,4451.8c457.3,0,914.6,0,1710.1,0 M2890.4,4451.8c0,109.1,0,218.2,0,293 M2890.4,4744.8
		c-532.4,0-1064.9,0-1710.1,0 M1180.3,4744.8c0-115.3,0-230.6,0-293"/>
</g>
<g transform="translate(1847.1107387503205 2161.5504698507334) rotate(0 24.5 23)">
	<text transform="matrix(1 0 0 1 2112.0862 4599.4351)" class="st3 st11">t 1</text>
</g>
<g transform="translate(1426.2227179169872 2166.5504698507334) rotate(0 90.5 17)">
	<text transform="matrix(1 0 0 1 1268.9526 4594.4351)" class="st12 st4">User Tables</text>
</g>
<g transform="translate(1381.9180304169872 2003.7331087396221) rotate(0 285.01627604166674 48.83463541666674)">
	<path class="st10" d="M1180.3,4187.8c645.8,0,1291.7,0,1710.1,0 M2890.4,4187.8c0,62.2,0,124.4,0,293 M2890.4,4480.8
		c-598.7,0-1197.5,0-1710.1,0 M1180.3,4480.8c0-70.6,0-141.2,0-293"/>
</g>
<g transform="translate(1846.444072083654 2029.5677441562889) rotate(0 32.5 23)">
	<text transform="matrix(1 0 0 1 2110.9382 4335.4692)" class="st3 st11">t 2</text>
</g>
<g transform="translate(1426.756572083654 2034.5677441562889) rotate(0 107 17)">
	<text transform="matrix(1 0 0 1 1270.0204 4330.4692)" class="st12 st4">Client Tables</text>
</g>
<g>
	<g transform="translate(1985.1883685205898 2552.14151545112) rotate(0 176.56250337544674 -429.7406731673418)">
		<path class="st6" d="M2386.9,5284.6c73.6-55.4,384.5,26.2,441.9-332.7c57.4-358.8-188.8-1492.1-97.5-1820.3s528-78,645.3-148.9
			c117.3-70.9,48.9-230.5,58.6-276.6 M2386.9,5284.6c73.6-55.4,384.5,26.2,441.9-332.7c57.4-358.8-188.8-1492.1-97.5-1820.3
			s528-78,645.3-148.9c117.3-70.9,48.9-230.5,58.6-276.6"/>
	</g>
	<g transform="translate(1985.1883685205898 2552.14151545112) rotate(0 176.56250337544674 -429.7406731673418)">
		<path class="st6" d="M3472.5,2788.1c-11.9-26.1-23.8-52.3-37.3-81.9 M3472.5,2788.1c-8.2-18-16.3-35.9-37.3-81.9"/>
	</g>
	<g transform="translate(1985.1883685205898 2552.14151545112) rotate(0 176.56250337544674 -429.7406731673418)">
		<path class="st6" d="M3411.1,2792.9c7.7-27.7,15.4-55.3,24.1-86.7 M3411.1,2792.9c5.3-19,10.6-38,24.1-86.7"/>
	</g>
</g>
<g transform="translate(2349.478125056896 1756.8573586456578) rotate(0 33.5 20)">
	<text transform="matrix(1 0 0 1 3115.4631 3736.0491)" class="st3 st13">uses DB</text>
	<text transform="matrix(1 0 0 1 3115.4631 3796.0491)" class="st3 st13">models</text>
</g>
<g transform="translate(1381.717509583654 1872.4873622118446) rotate(0 285.01627604166674 48.83463541666674)">
	<path class="st10" d="M1179.9,3925.3c465.2,0,930.4,0,1710.1,0 M2890,3925.3c0,66.6,0,133.2,0,293 M2890,4218.3
		c-485.3,0-970.7,0-1710.1,0 M1179.9,4218.3c0-68.5,0-137,0-293"/>
</g>
<g transform="translate(1846.7435512503207 1898.523820545178) rotate(0 32 23)">
	<text transform="matrix(1 0 0 1 2111.7112 4073.3816)" class="st3 st11">t 3</text>
</g>
<g transform="translate(1426.5560512503207 1903.3219976285113) rotate(0 90.5 17)">
	<text transform="matrix(1 0 0 1 1269.6194 4067.9778)" class="st12 st4">Item Tables</text>
</g>
<g transform="translate(1854.9798831839248 2390.049582506616) rotate(0 26 23)">
	<text transform="matrix(1 0 0 1 2128.4905 5056.4331)" class="st14 st3 st11">i 0</text>
</g>
<g transform="translate(2184.5510792404716 1844.4177310681239) rotate(0 316.962890625 103.943359375)">
	<path class="st6" d="M2785.6,3869.2c381.9,0,763.8,0,1901.8,0 M2785.6,3869.2c429.7,0,859.4,0,1901.8,0 M4687.4,3869.2
		c0,174.1,0,348.1,0,623.7 M4687.4,3869.2c0,235.2,0,470.5,0,623.7 M4687.4,4492.8c-741.3,0-1482.7,0-1901.8,0 M4687.4,4492.8
		c-444.3,0-888.5,0-1901.8,0 M2785.6,4492.8c0-212.8,0-425.5,0-623.7 M2785.6,4492.8c0-182.9,0-365.7,0-623.7"/>
</g>
<g transform="translate(2344.5139698654716 1930.3610904431239) rotate(0 157 18)">
	<text transform="matrix(1 0 0 1 3106.3921 4116.0562)" class="st3 st4">Rabbit Message Queue</text>
</g>
<g transform="translate(2912.8174765546128 1384.3343466726974) rotate(0 382.84494357638914 954.6386718750003)">
	<path class="st10" d="M4242.1,2949c470.9,0,941.7,0,2297.1,0 M6539.2,2949c0,1468.9,0,2937.9,0,5727.8 M6539.2,8676.8
		c-577.6,0-1155.2,0-2297.1,0 M4242.1,8676.8c0-1623.5,0-3247,0-5727.8"/>
</g>
<g transform="translate(3713.2198203046128 1384.057684966348) rotate(0 908.3909505208336 954.6386718750003)">
	<path class="st6" d="M5842.9,2948.4c1590.1,0,3180.3,0,5450.3,0 M5842.9,2948.4c1503.6,0,3007.1,0,5450.3,0 M11293.3,2948.4
		c0,1739.5,0,3478.9,0,5727.8 M11293.3,2948.4c0,2224.2,0,4448.4,0,5727.8 M11293.3,8676.3c-1409.2,0-2818.4,0-5450.3,0
		 M11293.3,8676.3c-1623.6,0-3247.2,0-5450.3,0 M5842.9,8676.3c0-2086.6,0-4173.2,0-5727.8 M5842.9,8676.3
		c0-1596.6,0-3193.2,0-5727.8"/>
</g>
<g>
	<g transform="translate(3678.17637375931 1384.9661871693156) rotate(0 -185.8928571428571 -113.1908947172619)">
		<path class="st10" d="M5772.9,2950.3c-185.9-113.2-929.5-565.9-1115.4-679.1"/>
	</g>
</g>
<g>
	<g transform="translate(3369.2840630129963 1058.0049994480178) rotate(0 253.37659208777518 76.78041294642858)">
		<path class="st6" d="M5155.1,2296.3c124.2,55.9,491.6,258.4,745,335.2s646,104.6,775.2,125.5 M5155.1,2296.3
			c124.2,55.9,491.6,258.4,745,335.2s646,104.6,775.2,125.5"/>
	</g>
	<g transform="translate(3369.2840630129963 1058.0049994480178) rotate(0 253.37659208777518 76.78041294642858)">
		<path class="st6" d="M6587.6,2777.2c34.4-7.9,68.7-15.8,87.7-20.2 M6587.6,2777.2c24.3-5.6,48.5-11.2,87.7-20.2"/>
	</g>
	<g transform="translate(3369.2840630129963 1058.0049994480178) rotate(0 253.37659208777518 76.78041294642858)">
		<path class="st6" d="M6595.2,2716.1c31.4,16.1,62.8,32.1,80.2,40.9 M6595.2,2716.1c22.2,11.3,44.4,22.7,80.2,40.9"/>
	</g>
</g>
<g transform="translate(3766.067846146876 1447.9456070188514) rotate(0 172.5 23)">
	<text transform="matrix(1 0 0 1 5948.6426 3172.2253)" class="st3 st11">Solid JS Application</text>
</g>
<g transform="translate(3972.8571476370407 1175.590423061587) rotate(0 223.5 33)">
	<text transform="matrix(1 0 0 1 6362.2227 2669.5151)" class="st3 st9">Frontend Services</text>
</g>
<g>
	<g transform="translate(3304.4223848373463 535.1117621527778) rotate(0 0 152.57682291666663)">
		<path class="st6" d="M5025.4,1250.6c0,152.6,0,762.9,0,915.5 M5025.4,1250.6c0,152.6,0,762.9,0,915.5"/>
	</g>
	<g transform="translate(3304.4223848373463 535.1117621527778) rotate(0 0 152.57682291666663)">
		<path class="st6" d="M4994.6,2081.4c10.2,28.1,20.5,56.2,30.8,84.6 M4994.6,2081.4c9.7,26.7,19.4,53.4,30.8,84.6"/>
	</g>
	<g transform="translate(3304.4223848373463 535.1117621527778) rotate(0 0 152.57682291666663)">
		<path class="st6" d="M5056.1,2081.4c-10.2,28.1-20.5,56.2-30.8,84.6 M5056.1,2081.4c-9.7,26.7-19.4,53.4-30.8,84.6"/>
	</g>
</g>
<g transform="translate(3148.4523327540132 229.95501893939536) rotate(0 156.57552083333326 126.37369791666663)">
	<path d="M4903,640.2l583.3,0.8l41.5,5.9l35.6,11.9l15.5,8.2l26.6,20.7l20.8,26.6l14.8,32.6l8.9,38.5l3,44.4l-0.8,402.1l-5.9,41.5
		l-11.9,35.5l-8.1,15.6l-20.8,26.6l-26.6,20.7l-32.6,14.8l-38.5,8.9l-44.4,3l-583.3-0.8l-41.5-5.9L4803,1380l-29.6-17.8l-12.6-11.1
		l-20.7-26.6l-8.2-15.6l-11.8-35.5l-5.9-41.5l-0.8-402.1l0.8-22.9l5.9-41.5l11.8-35.5l8.2-15.6l20.7-26.6l12.6-11.1l14.1-9.6
		l32.6-14.8l38.5-8.9L4903,640.2"/>
	<path class="st6" d="M4903,640.2c198.5,0,397.1,0,560.3,0 M4903,640.2c205.1,0,410.2,0,560.3,0 M5463.3,640.2
		c126.4,0,189.6,63.2,189.6,189.6 M5463.3,640.2c126.4,0,189.6,63.2,189.6,189.6 M5652.9,829.8c0,105.3,0,210.7,0,379.1
		 M5652.9,829.8c0,82.8,0,165.6,0,379.1 M5652.9,1208.9c0,126.4-63.2,189.6-189.6,189.6 M5652.9,1208.9
		c0,126.4-63.2,189.6-189.6,189.6 M5463.3,1398.5c-201.9,0-403.8,0-560.3,0 M5463.3,1398.5c-167.2,0-334.5,0-560.3,0 M4903,1398.5
		c-126.4,0-189.6-63.2-189.6-189.6 M4903,1398.5c-126.4,0-189.6-63.2-189.6-189.6 M4713.4,1208.9c0-124.6,0-249.2,0-379.1
		 M4713.4,1208.9c0-108.3,0-216.7,0-379.1 M4713.4,829.8c0-126.4,63.2-189.6,189.6-189.6 M4713.4,829.8
		c0-126.4,63.2-189.6,189.6-189.6"/>
</g>
<g transform="translate(3206.7400931706798 10) rotate(0 98.40494791666674 98.40494791666674)">
	<path d="M5420.4,495.5c0,9.7-0.5,19.4-1.4,28.9c-1,9.6-2.4,19.2-4.3,28.7c-1.9,9.5-4.2,18.9-7,28.1c-2.8,9.2-6.1,18.4-9.8,27.3
		c-3.7,8.9-7.8,17.7-12.4,26.2c-4.6,8.5-9.5,16.8-14.9,24.9c-5.4,8-11.2,15.8-17.3,23.2c-6.1,7.5-12.6,14.6-19.4,21.5
		c-6.8,6.8-14,13.3-21.5,19.4c-7.4,6.1-15.2,11.9-23.2,17.3c-8,5.3-16.3,10.3-24.9,14.9c-8.5,4.6-17.3,8.7-26.2,12.4
		c-8.9,3.7-18,7-27.3,9.8c-9.2,2.8-18.6,5.2-28.1,7c-9.4,1.9-19,3.3-28.6,4.3c-9.6,0.9-19.3,1.4-29,1.4c-9.6,0-19.3-0.5-28.9-1.4
		c-9.6-1-19.2-2.4-28.6-4.3c-9.5-1.9-18.9-4.2-28.1-7c-9.2-2.8-18.4-6.1-27.3-9.8c-8.9-3.7-17.7-7.8-26.2-12.4
		c-8.5-4.6-16.8-9.5-24.9-14.9c-8-5.4-15.8-11.2-23.2-17.3c-7.5-6.1-14.6-12.6-21.5-19.4c-6.8-6.8-13.3-14-19.4-21.5
		c-6.1-7.4-11.9-15.2-17.3-23.2c-5.3-8-10.3-16.3-14.9-24.9c-4.6-8.5-8.7-17.3-12.4-26.2c-3.7-8.9-7-18-9.8-27.3
		c-2.8-9.2-5.2-18.6-7-28.1c-1.9-9.5-3.3-19-4.3-28.7c-0.9-9.6-1.4-19.3-1.4-28.9c0-9.6,0.5-19.3,1.4-28.9c1-9.6,2.4-19.2,4.3-28.7
		c1.9-9.5,4.2-18.9,7-28.1c2.8-9.2,6.1-18.4,9.8-27.3c3.7-8.9,7.8-17.7,12.4-26.2c4.6-8.5,9.5-16.8,14.9-24.9
		c5.4-8,11.2-15.8,17.3-23.2c6.1-7.5,12.6-14.6,19.4-21.5c6.8-6.8,14-13.3,21.5-19.4c7.4-6.1,15.2-11.9,23.2-17.3
		c8-5.3,16.4-10.3,24.9-14.9c8.5-4.6,17.3-8.7,26.2-12.4s18-7,27.3-9.8c9.2-2.8,18.6-5.2,28.1-7.1c9.5-1.9,19.1-3.3,28.6-4.3
		c9.6-0.9,19.3-1.4,28.9-1.4c9.7,0,19.4,0.5,29,1.4c9.6,1,19.2,2.4,28.6,4.3c9.5,1.9,18.9,4.2,28.1,7.1c9.2,2.8,18.4,6.1,27.3,9.8
		c8.9,3.7,17.7,7.8,26.2,12.4c8.5,4.6,16.8,9.5,24.9,14.9c8,5.4,15.8,11.2,23.2,17.3c7.5,6.1,14.6,12.6,21.5,19.4
		c6.8,6.8,13.3,14,19.4,21.5c6.1,7.4,11.9,15.2,17.3,23.2c5.3,8,10.3,16.4,14.9,24.9c4.6,8.5,8.7,17.3,12.4,26.2s7,18,9.8,27.3
		c2.8,9.2,5.2,18.6,7,28.1c1.9,9.5,3.3,19,4.3,28.7C5419.9,476.2,5420.2,490.7,5420.4,495.5C5420.7,500.4,5420.7,490.7,5420.4,495.5
		"/>
	<path class="st6" d="M5420.4,495.5c0,9.7-0.5,19.4-1.4,28.9c-1,9.6-2.4,19.2-4.3,28.7c-1.9,9.5-4.2,18.9-7,28.1
		c-2.8,9.2-6.1,18.4-9.8,27.3c-3.7,8.9-7.8,17.7-12.4,26.2c-4.6,8.5-9.5,16.8-14.9,24.9c-5.4,8-11.2,15.8-17.3,23.2
		c-6.1,7.5-12.6,14.6-19.4,21.5c-6.8,6.8-14,13.3-21.5,19.4c-7.4,6.1-15.2,11.9-23.2,17.3c-8,5.3-16.3,10.3-24.9,14.9
		c-8.5,4.6-17.3,8.7-26.2,12.4c-8.9,3.7-18,7-27.3,9.8c-9.2,2.8-18.6,5.2-28.1,7c-9.4,1.9-19,3.3-28.6,4.3c-9.6,0.9-19.3,1.4-29,1.4
		c-9.6,0-19.3-0.5-28.9-1.4c-9.6-1-19.2-2.4-28.6-4.3c-9.5-1.9-18.9-4.2-28.1-7c-9.2-2.8-18.4-6.1-27.3-9.8
		c-8.9-3.7-17.7-7.8-26.2-12.4c-8.5-4.6-16.8-9.5-24.9-14.9c-8-5.4-15.8-11.2-23.2-17.3c-7.5-6.1-14.6-12.6-21.5-19.4
		c-6.8-6.8-13.3-14-19.4-21.5c-6.1-7.4-11.9-15.2-17.3-23.2c-5.3-8-10.3-16.3-14.9-24.9c-4.6-8.5-8.7-17.3-12.4-26.2
		c-3.7-8.9-7-18-9.8-27.3c-2.8-9.2-5.2-18.6-7-28.1c-1.9-9.5-3.3-19-4.3-28.7c-0.9-9.6-1.4-19.3-1.4-28.9c0-9.6,0.5-19.3,1.4-28.9
		c1-9.6,2.4-19.2,4.3-28.7c1.9-9.5,4.2-18.9,7-28.1c2.8-9.2,6.1-18.4,9.8-27.3c3.7-8.9,7.8-17.7,12.4-26.2
		c4.6-8.5,9.5-16.8,14.9-24.9c5.4-8,11.2-15.8,17.3-23.2c6.1-7.5,12.6-14.6,19.4-21.5c6.8-6.8,14-13.3,21.5-19.4
		c7.4-6.1,15.2-11.9,23.2-17.3c8-5.3,16.4-10.3,24.9-14.9c8.5-4.6,17.3-8.7,26.2-12.4s18-7,27.3-9.8c9.2-2.8,18.6-5.2,28.1-7.1
		c9.5-1.9,19.1-3.3,28.6-4.3c9.6-0.9,19.3-1.4,28.9-1.4c9.7,0,19.4,0.5,29,1.4c9.6,1,19.2,2.4,28.6,4.3c9.5,1.9,18.9,4.2,28.1,7.1
		c9.2,2.8,18.4,6.1,27.3,9.8c8.9,3.7,17.7,7.8,26.2,12.4c8.5,4.6,16.8,9.5,24.9,14.9c8,5.4,15.8,11.2,23.2,17.3
		c7.5,6.1,14.6,12.6,21.5,19.4c6.8,6.8,13.3,14,19.4,21.5c6.1,7.4,11.9,15.2,17.3,23.2c5.3,8,10.3,16.4,14.9,24.9
		c4.6,8.5,8.7,17.3,12.4,26.2s7,18,9.8,27.3c2.8,9.2,5.2,18.6,7,28.1c1.9,9.5,3.3,19,4.3,28.7
		C5419.9,476.2,5420.2,490.7,5420.4,495.5C5420.7,500.4,5420.7,490.7,5420.4,495.5"/>
</g>
<g>
	<g transform="translate(3393.4523327540132 483.8018465909106) rotate(0 0.8615451388889142 -69.50599747474735)">
		<path class="st15" d="M5203.4,1147.9c0.9-69.5,4.3-347.5,5.2-417 M5203.4,1147.9c0.9-69.5,4.3-347.5,5.2-417"/>
	</g>
</g>
<g transform="translate(2386.8924575886863 1510.4576538731835) rotate(0 111 17.99999999999997)">
	<text transform="matrix(1 0 0 1 3191.9167 3276.2495)" class="st3 st4">Celery Worker(s)</text>
</g>
<g transform="translate(2184.779176338686 1482.770967675267) rotate(0 316.962890625 103.943359375)">
	<path class="st6" d="M2786.1,3145.9c699.8,0,1399.6,0,1901.8,0 M2786.1,3145.9c702.6,0,1405.2,0,1901.8,0 M4687.9,3145.9
		c0,149,0,298,0,623.7 M4687.9,3145.9c0,234.4,0,468.8,0,623.7 M4687.9,3769.5c-677.3,0-1354.5,0-1901.8,0 M4687.9,3769.5
		c-471.1,0-942.1,0-1901.8,0 M2786.1,3769.5c0-146.6,0-293.3,0-623.7 M2786.1,3769.5c0-179.2,0-358.5,0-623.7"/>
</g>
<g transform="translate(2711.4107797613046 1617.6590582630645) rotate(0 15.5 23)">
	<text transform="matrix(1 0 0 1 3841.4431 3511.6526)" class="st3 st11">...</text>
</g>
<g transform="translate(2262.3004747017812 1583.2386713583023) rotate(0 38.08268229166674 38.08268229166674)">
	<path class="st6" d="M3169.6,3461.1c0,6-0.5,12-1.4,17.9c-0.9,5.9-2.3,11.8-4.2,17.4c-1.8,5.7-4.1,11.2-6.9,16.6
		c-2.7,5.3-5.9,10.5-9.4,15.3c-3.5,4.8-7.4,9.4-11.6,13.6c-4.2,4.2-8.8,8.1-13.6,11.6c-4.8,3.5-10,6.7-15.3,9.4
		c-5.3,2.7-10.9,5-16.6,6.9c-5.7,1.9-11.6,3.3-17.4,4.2c-5.9,0.9-11.9,1.4-17.9,1.4c-5.9,0-12-0.5-17.9-1.4
		c-5.9-0.9-11.8-2.3-17.5-4.2c-5.6-1.8-11.2-4.1-16.6-6.9c-5.3-2.7-10.5-5.9-15.3-9.4c-4.8-3.5-9.4-7.4-13.6-11.6
		c-4.2-4.2-8.1-8.8-11.6-13.6c-3.5-4.8-6.7-10-9.4-15.3c-2.7-5.3-5-10.9-6.9-16.6c-1.8-5.7-3.2-11.6-4.2-17.4
		c-0.9-5.9-1.4-11.9-1.4-17.9c0-5.9,0.5-12,1.4-17.8c0.9-5.9,2.3-11.8,4.2-17.5c1.9-5.6,4.2-11.2,6.9-16.6
		c2.7-5.3,5.9-10.5,9.4-15.3c3.5-4.8,7.4-9.4,11.6-13.7c4.2-4.2,8.8-8.1,13.6-11.6c4.8-3.5,10-6.7,15.3-9.4c5.3-2.7,10.9-5,16.6-6.9
		c5.7-1.8,11.6-3.2,17.5-4.2c5.9-0.9,11.9-1.4,17.9-1.4c6,0,12,0.5,17.9,1.4c5.9,0.9,11.8,2.3,17.4,4.2c5.7,1.9,11.2,4.2,16.6,6.9
		c5.3,2.7,10.5,5.9,15.3,9.4c4.8,3.5,9.4,7.4,13.6,11.6c4.2,4.2,8.1,8.8,11.6,13.7c3.5,4.8,6.7,10,9.4,15.3c2.7,5.3,5,10.9,6.9,16.6
		c1.9,5.7,3.3,11.6,4.2,17.5C3169.1,3449.1,3169.4,3458.1,3169.6,3461.1C3169.8,3464.1,3169.8,3458.1,3169.6,3461.1"/>
</g>
<g transform="translate(2284.0673501151205 1603.7397721636023) rotate(0 17 17)">
	<text transform="matrix(1 0 0 1 2986.4233 3468.813)" class="st12 st4">w1</text>
</g>
<g>
	<g transform="translate(2645.2925460287456 2201.99147727273) rotate(0 -0.017222376795075434 -71.42371961805566)">
		<path class="st6" d="M3707.1,4584.3c0-71.4-0.1-357.1-0.1-428.5 M3707.1,4584.3c0-71.4-0.1-357.1-0.1-428.5"/>
	</g>
	<g transform="translate(2645.2925460287456 2201.99147727273) rotate(0 -0.017222376795075434 -71.42371961805566)">
		<path class="st6" d="M3737.8,4240.3c-10.1-27.6-20.1-55.2-30.8-84.6 M3737.8,4240.3c-9.4-25.7-18.8-51.5-30.8-84.6"/>
	</g>
	<g transform="translate(2645.2925460287456 2201.99147727273) rotate(0 -0.017222376795075434 -71.42371961805566)">
		<path class="st6" d="M3676.2,4240.4c10.1-27.6,20.1-55.3,30.8-84.6 M3676.2,4240.4c9.4-25.8,18.7-51.5,30.8-84.6"/>
	</g>
</g>
<g transform="translate(2662.4880605188528 2120.14579841015) rotate(0 57.5 10)">
	<text transform="matrix(1 0 0 1 3741.4834 4462.626)" class="st3 st13">enqueues task</text>
</g>
<g>
	<g transform="translate(2591.196727698718 2054.2351838699524) rotate(0 0.014681559236748853 72.18977864583337)">
		<path class="st6" d="M3598.9,4288.8c0,72.2,0.1,361,0.1,433.1 M3598.9,4288.8c0,72.2,0.1,361,0.1,433.1"/>
	</g>
	<g transform="translate(2591.196727698718 2054.2351838699524) rotate(0 0.014681559236748853 72.18977864583337)">
		<path class="st6" d="M3568.2,4637.4c8.8,24.2,17.6,48.3,30.8,84.6 M3568.2,4637.4c6.5,17.8,13,35.6,30.8,84.6"/>
	</g>
	<g transform="translate(2591.196727698718 2054.2351838699524) rotate(0 0.014681559236748853 72.18977864583337)">
		<path class="st6" d="M3629.7,4637.4c-8.8,24.2-17.6,48.3-30.8,84.6 M3629.7,4637.4c-6.4,17.8-12.9,35.6-30.8,84.6"/>
	</g>
</g>
<g transform="translate(2486.9004246492877 2119.937465076817) rotate(0 43.5 10)">
	<text transform="matrix(1 0 0 1 3393.3101 4462.209)" class="st3 st13">returns ID</text>
</g>
<g>
	<g transform="translate(2356.078998623977 2054.2895316960394) rotate(0 0.04778867779822349 72.44989938446975)">
		<path class="st6" d="M3128.7,4288.9c0.1,72.5,0.2,362.2,0.3,434.7 M3128.7,4288.9c0.1,72.5,0.2,362.2,0.3,434.7"/>
	</g>
	<g transform="translate(2356.078998623977 2054.2895316960394) rotate(0 0.04778867779822349 72.44989938446975)">
		<path class="st6" d="M3098.1,4639.1c6.3,17.2,12.6,34.5,30.8,84.5 M3098.1,4639.1c8.5,23.2,16.9,46.5,30.8,84.5"/>
	</g>
	<g transform="translate(2356.078998623977 2054.2895316960394) rotate(0 0.04778867779822349 72.44989938446975)">
		<path class="st6" d="M3159.7,4639c-6.3,17.3-12.5,34.5-30.7,84.6 M3159.7,4639c-8.5,23.3-16.9,46.5-30.7,84.6"/>
	</g>
</g>
<g transform="translate(2237.5743376927658 2109.991812902904) rotate(0 50.5 20)">
	<text transform="matrix(1 0 0 1 2891.6831 4442.3169)" class="st3 st13">returns task</text>
	<text transform="matrix(1 0 0 1 3029.0093 4502.3169)" class="st3 st13">status</text>
</g>
<g>
	<g transform="translate(2503.686358906025 1842.1640033143958) rotate(0 0.04577625138767871 -72.89043898809524)">
		<path class="st6" d="M3423.9,3864.7c0.1-72.9,0.2-364.4,0.3-437.3 M3423.9,3864.7c0.1-72.9,0.2-364.4,0.3-437.3"/>
	</g>
	<g transform="translate(2503.686358906025 1842.1640033143958) rotate(0 0.04577625138767871 -72.89043898809524)">
		<path class="st6" d="M3454.9,3511.9c-6.4-17.8-12.9-35.6-30.7-84.6 M3454.9,3511.9c-7.9-21.8-15.8-43.5-30.7-84.6"/>
	</g>
	<g transform="translate(2503.686358906025 1842.1640033143958) rotate(0 0.04577625138767871 -72.89043898809524)">
		<path class="st6" d="M3393.3,3511.9c6.5-17.8,13-35.6,30.8-84.5 M3393.3,3511.9c7.9-21.8,15.9-43.5,30.8-84.5"/>
	</g>
</g>
<g transform="translate(2525.099218806896 1767.0279315623243) rotate(0 49 10)">
	<text transform="matrix(1 0 0 1 3466.7053 3756.3901)" class="st3 st13">starts task</text>
</g>
<g>
	<g transform="translate(2183.437017773852 1593.8320495862133) rotate(0 -97.05822172619048 -0.029278190474826715)">
		<path class="st6" d="M2783.4,3368c-97.1,0-485.3-0.1-582.4-0.2 M2783.4,3368c-97.1,0-485.3-0.1-582.4-0.2"/>
	</g>
	<g transform="translate(2183.437017773852 1593.8320495862133) rotate(0 -97.05822172619048 -0.029278190474826715)">
		<path class="st6" d="M2285.6,3337.1c-17.1,6.2-34.3,12.4-84.6,30.8 M2285.6,3337.1c-22.6,8.2-45.2,16.4-84.6,30.8"/>
	</g>
	<g transform="translate(2183.437017773852 1593.8320495862133) rotate(0 -97.05822172619048 -0.029278190474826715)">
		<path class="st6" d="M2285.6,3398.6c-17.1-6.2-34.3-12.5-84.6-30.8 M2285.6,3398.6c-22.6-8.2-45.2-16.5-84.6-30.8"/>
	</g>
</g>
<g transform="translate(2036.3433594318935 1534.8541034373236) rotate(0 43 20)">
	<text transform="matrix(1 0 0 1 2489.1943 3292.0425)" class="st3 st13">store task</text>
	<text transform="matrix(1 0 0 1 2489.1943 3352.0425)" class="st3 st13">status</text>
</g>
<g>
	<g transform="translate(2179.800224432404 1839.8822765378623) rotate(0 -95.40640044218821 -75.13925662866666)">
		<path class="st6" d="M2776.1,3860.1c-95.4-75.1-477-375.7-572.4-450.8 M2776.1,3860.1c-95.4-75.1-477-375.7-572.4-450.8"/>
	</g>
	<g transform="translate(2179.800224432404 1839.8822765378623) rotate(0 -95.40640044218821 -75.13925662866666)">
		<path class="st6" d="M2690.6,3832c23.7,7.8,47.3,15.6,85.5,28.1 M2690.6,3832c26.9,8.8,53.8,17.7,85.5,28.1"/>
	</g>
	<g transform="translate(2179.800224432404 1839.8822765378623) rotate(0 -95.40640044218821 -75.13925662866666)">
		<path class="st6" d="M2728.7,3783.6c13.1,21.2,26.2,42.3,47.4,76.5 M2728.7,3783.6c14.9,24.1,29.9,48.2,47.4,76.5"/>
	</g>
	<g transform="translate(2179.800224432404 1839.8822765378623) rotate(0 -95.40640044218821 -75.13925662866666)">
		<path class="st6" d="M2289.1,3437.4c-23.6-7.8-47.3-15.6-85.5-28.1 M2289.1,3437.4c-26.9-8.9-53.8-17.7-85.5-28.1"/>
	</g>
	<g transform="translate(2179.800224432404 1839.8822765378623) rotate(0 -95.40640044218821 -75.13925662866666)">
		<path class="st6" d="M2251.1,3485.8c-13.1-21.2-26.2-42.3-47.4-76.5 M2251.1,3485.8c-14.9-24.1-29.9-48.2-47.4-76.5"/>
	</g>
</g>
<g transform="translate(2072.4566406818935 1701.0044940623243) rotate(0 50 20)">
	<text transform="matrix(1 0 0 1 2561.4199 3624.3433)" class="st3 st13">queries</text>
	<text transform="matrix(1 0 0 1 2561.4199 3684.3433)" class="st3 st13">task status</text>
</g>
<g>
	<g transform="translate(2182.1299361364413 2257.8461878390744) rotate(0 -94.82421875 0.005336608143920785)">
		<path class="st6" d="M2780.8,4696c-94.8,0-474.1,0-568.9,0 M2780.8,4696c-94.8,0-474.1,0-568.9,0"/>
	</g>
	<g transform="translate(2182.1299361364413 2257.8461878390744) rotate(0 -94.82421875 0.005336608143920785)">
		<path class="st6" d="M2296.4,4665.3c-29.6,10.8-59.2,21.6-84.6,30.8 M2296.4,4665.3c-22.6,8.2-45.3,16.5-84.6,30.8"/>
	</g>
	<g transform="translate(2182.1299361364413 2257.8461878390744) rotate(0 -94.82421875 0.005336608143920785)">
		<path class="st6" d="M2296.4,4726.8c-29.6-10.8-59.2-21.6-84.6-30.8 M2296.4,4726.8c-22.6-8.2-45.3-16.5-84.6-30.8"/>
	</g>
</g>
<g transform="translate(2053.6533736364413 2178.232713759294) rotate(0 25.5 30)">
	<text transform="matrix(1 0 0 1 2523.8142 4578.7998)" class="st3 st13">stores</text>
	<text transform="matrix(1 0 0 1 2523.8142 4638.7998)" class="st3 st13">task</text>
	<text transform="matrix(1 0 0 1 2523.8142 4698.7998)" class="st3 st13">data</text>
</g>
<g>
	<g transform="translate(657.8593025589025 3469.9426773313517) rotate(0 71.45417557481733 0)">
		<path class="st6" d="M-267.8,7120.2c71.5,0,357.3,0,428.7,0 M-267.8,7120.2c71.5,0,357.3,0,428.7,0"/>
	</g>
</g>
<g>
	<g transform="translate(1656.0170241596359 2550.400969982237) rotate(0 -0.01523638683045192 -45.58756510416663)">
		<path class="st6" d="M1728.5,5281.1c0-45.6-0.1-227.9-0.1-273.5 M1728.5,5281.1c0-45.6-0.1-227.9-0.1-273.5"/>
	</g>
	<g transform="translate(1656.0170241596359 2550.400969982237) rotate(0 -0.01523638683045192 -45.58756510416663)">
		<path class="st6" d="M1759.3,5092.2c-11.3-31.1-22.7-62.1-30.8-84.6 M1759.3,5092.2c-8.9-24.5-17.8-49-30.8-84.6"/>
	</g>
	<g transform="translate(1656.0170241596359 2550.400969982237) rotate(0 -0.01523638683045192 -45.58756510416663)">
		<path class="st6" d="M1697.7,5092.2c11.3-31.1,22.6-62.2,30.8-84.6 M1697.7,5092.2c8.9-24.5,17.8-49,30.8-84.6"/>
	</g>
</g>
<g transform="translate(1679.9957704973967 2486.3270767530703) rotate(0 33.5 20)">
	<text transform="matrix(1 0 0 1 1776.499 5194.9883)" class="st3 st13">uses DB</text>
	<text transform="matrix(1 0 0 1 1776.499 5254.9883)" class="st3 st13">models</text>
</g>
<g>
	<g transform="translate(1985.5754933029716 2451.670611313234) rotate(0 97.64427488193473 153.39005586199528)">
		<path class="st6" d="M2387.7,5083.7c46.6,46.2,224.8,156.7,280,277.2c55.1,120.6-0.1,339.1,50.9,446.2
			c51,107.2,212.5,164.1,255,196.9 M2387.7,5083.7c46.6,46.2,224.8,156.7,280,277.2c55.1,120.6-0.1,339.1,50.9,446.2
			c51,107.2,212.5,164.1,255,196.9"/>
	</g>
	<g transform="translate(1985.5754933029716 2451.670611313234) rotate(0 97.64427488193473 153.39005586199528)">
		<path class="st6" d="M2472.1,5114.9c-22.6-8.4-45.3-16.7-84.4-31.2 M2472.1,5114.9c-23.3-8.6-46.7-17.2-84.4-31.2"/>
	</g>
	<g transform="translate(1985.5754933029716 2451.670611313234) rotate(0 97.64427488193473 153.39005586199528)">
		<path class="st6" d="M2432.3,5161.9c-12-21-23.9-41.9-44.6-78.2 M2432.3,5161.9c-12.3-21.6-24.7-43.3-44.6-78.2"/>
	</g>
	<g transform="translate(1985.5754933029716 2451.670611313234) rotate(0 97.64427488193473 153.39005586199528)">
		<path class="st6" d="M2884.8,5988.7c23.8,4.1,47.6,8.2,88.7,15.3 M2884.8,5988.7c24.5,4.2,49.1,8.5,88.7,15.3"/>
	</g>
	<g transform="translate(1985.5754933029716 2451.670611313234) rotate(0 97.64427488193473 153.39005586199528)">
		<path class="st6" d="M2915.4,5935.3c15.6,18.4,31.2,36.9,58.1,68.7 M2915.4,5935.3c16.1,19,32.1,38,58.1,68.7"/>
	</g>
</g>
<g transform="translate(2024.5842529784582 2770.3154763742823) rotate(0 58.5 20)">
	<text transform="matrix(1 0 0 1 2466.5676 5762.9648)" class="st3 st13">reads + writes</text>
	<text transform="matrix(1 0 0 1 2511.7844 5822.9648)" class="st3 st13">to database</text>
</g>
<g transform="translate(2607.5827796796175 2939.2223235553165) rotate(0 51 12.5)">
	<text transform="matrix(1 0 0 1 3632.4539 6112.7798)" class="st3 st16">API Layer</text>
</g>
<g transform="translate(2529.129817440034 2229.849253428829) rotate(0 129.45296223958331 375.93073381696433)">
	<path class="st17" d="M3474.8,4640c220,0,439.9,0,776.7,0 M3474.8,4640c263.5,0,526.9,0,776.7,0 M4251.5,4640
		c0,489.3,0,978.6,0,2255.6 M4251.5,4640c0,792.8,0,1585.7,0,2255.6 M4251.5,6895.6c-177.4,0-354.9,0-776.7,0 M4251.5,6895.6
		c-183.3,0-366.6,0-776.7,0 M3474.8,6895.6c0-861,0-1721.9,0-2255.6 M3474.8,6895.6c0-758.8,0-1517.6,0-2255.6"/>
</g>
<g transform="translate(2419.17978488795 3022.853647960079) rotate(0 82.5 12.5)">
	<text transform="matrix(1 0 0 1 3255.7397 6280.043)" class="st3 st16">Core Environment</text>
</g>
<g transform="translate(2214.9729163983666 3006.990529470496) rotate(0 286.70686848958337 28.36311848958303)">
	<path class="st17" d="M2846.5,6194.3c677.4,0,1354.8,0,1720.2,0 M2846.5,6194.3c549.8,0,1099.7,0,1720.2,0 M4566.7,6194.3
		c0,46.7,0,93.4,0,170.2 M4566.7,6194.3c0,65.6,0,131.2,0,170.2 M4566.7,6364.5c-392.1,0-784.2,0-1720.2,0 M4566.7,6364.5
		c-394.8,0-789.7,0-1720.2,0 M2846.5,6364.5c0-66.8,0-133.6,0-170.2 M2846.5,6364.5c0-41.4,0-82.8,0-170.2"/>
</g>
<g>
	<g transform="translate(2558.6881032084343 2489.6672491978034) rotate(0 99.154296875 0)">
		<path class="st17" d="M3533.9,5159.7c99.1,0,495.8,0,594.9,0 M3533.9,5159.7c99.1,0,495.8,0,594.9,0"/>
	</g>
</g>
<g>
	<g transform="translate(2558.6881032084343 2458.9055304478034) rotate(0 99.154296875 0)">
		<path class="st17" d="M3533.9,5098.1c99.1,0,495.8,0,594.9,0 M3533.9,5098.1c99.1,0,495.8,0,594.9,0"/>
	</g>
</g>
<g>
	<g transform="translate(2558.6881032084343 2428.1438116978034) rotate(0 99.154296875 0)">
		<path class="st17" d="M3533.9,5036.6c99.1,0,495.8,0,594.9,0 M3533.9,5036.6c99.1,0,495.8,0,594.9,0"/>
	</g>
</g>
<g>
	<g transform="translate(2558.6881032084343 2397.3820929478034) rotate(0 99.154296875 0)">
		<path class="st17" d="M3533.9,4975.1c99.1,0,495.8,0,594.9,0 M3533.9,4975.1c99.1,0,495.8,0,594.9,0"/>
	</g>
</g>
<g>
	<g transform="translate(2558.6881032084343 2366.6203741978034) rotate(0 99.154296875 0)">
		<path class="st17" d="M3533.9,4913.6c99.1,0,495.8,0,594.9,0 M3533.9,4913.6c99.1,0,495.8,0,594.9,0"/>
	</g>
</g>
<g>
	<g transform="translate(2558.6881032084343 2335.8586554478034) rotate(0 99.154296875 0)">
		<path class="st17" d="M3533.9,4852.1c99.1,0,495.8,0,594.9,0 M3533.9,4852.1c99.1,0,495.8,0,594.9,0"/>
	</g>
</g>
<g>
	<g transform="translate(2558.6881032084343 2305.0969366978034) rotate(0 99.154296875 0)">
		<path class="st17" d="M3533.9,4790.5c99.1,0,495.8,0,594.9,0 M3533.9,4790.5c99.1,0,495.8,0,594.9,0"/>
	</g>
</g>
<g transform="translate(2288.980101108189 2939.2223235553165) rotate(0 55.5 12.5)">
	<text transform="matrix(1 0 0 1 2996.6897 6112.7798)" class="st3 st16">SQLAlchemy</text>
</g>
<g transform="translate(2215.069270565034 2921.7257415240665) rotate(0 129.41083054315482 29.996582031249773)">
	<path class="st17" d="M2846.6,6023.8c235,0,469.9,0,776.5,0 M2846.6,6023.8c251.2,0,502.4,0,776.5,0 M3623.1,6023.8
		c0,71.2,0,142.4,0,180 M3623.1,6023.8c0,36.6,0,73.3,0,180 M3623.1,6203.8c-187.1,0-374.2,0-776.5,0 M3623.1,6203.8
		c-307.5,0-615,0-776.5,0 M2846.6,6203.8c0-64.5,0-128.9,0-180 M2846.6,6203.8c0-48,0-96,0-180"/>
</g>
<g transform="translate(2276.0693868224744 2856.543752126745) rotate(0 68.5 12.5)">
	<text transform="matrix(1 0 0 1 2970.7778 5947.4214)" class="st3 st16">User Manager</text>
</g>
<g transform="translate(2215.15855627932 2839.047170095495) rotate(0 129.41083054315476 29.996582031249773)">
	<path class="st17" d="M2846.8,5858.4c212,0,423.9,0,776.5,0 M2846.8,5858.4c208.9,0,417.9,0,776.5,0 M3623.3,5858.4
		c0,39.1,0,78.2,0,180 M3623.3,5858.4c0,65.3,0,130.7,0,180 M3623.3,6038.4c-161.9,0-323.9,0-776.5,0 M3623.3,6038.4
		c-190.1,0-380.1,0-776.5,0 M2846.8,6038.4c0-43.7,0-87.4,0-180 M2846.8,6038.4c0-64.4,0-128.8,0-180"/>
</g>
<g transform="translate(2270.730101108189 2771.535939626745) rotate(0 73 12.5)">
	<text transform="matrix(1 0 0 1 2959.9192 5777.4058)" class="st3 st16">CRUD Services</text>
</g>
<g transform="translate(2214.319270565034 2524.347951345495) rotate(0 129.41083054315482 144.84228515624977)">
	<path class="st17" d="M2845.1,5229c227.7,0,455.4,0,776.5,0 M2845.1,5229c247.8,0,495.5,0,776.5,0 M3621.6,5229
		c0,243.9,0,487.7,0,869 M3621.6,5229c0,283.2,0,566.4,0,869 M3621.6,6098.1c-158.7,0-317.3,0-776.5,0 M3621.6,6098.1
		c-298.8,0-597.6,0-776.5,0 M2845.1,6098.1c0-295.7,0-591.4,0-869 M2845.1,6098.1c0-247.7,0-495.4,0-869"/>
</g>
<g>
	<g transform="translate(1990.9804412196384 2979.628380190983) rotate(0 94.33034391272838 -0.1684766969276552)">
		<path class="st6" d="M2398.5,6139.6c94.3-0.2,471.7-0.8,566-1 M2398.5,6139.6c94.3-0.2,471.7-0.8,566-1"/>
	</g>
	<g transform="translate(1990.9804412196384 2979.628380190983) rotate(0 94.33034391272838 -0.1684766969276552)">
		<path class="st6" d="M2483,6108.7c-29.5,10.8-58.9,21.6-84.5,30.9 M2483,6108.7c-23.5,8.6-47.1,17.2-84.5,30.9"/>
	</g>
	<g transform="translate(1990.9804412196384 2979.628380190983) rotate(0 94.33034391272838 -0.1684766969276552)">
		<path class="st6" d="M2483.1,6170.2c-29.5-10.7-59-21.4-84.6-30.6 M2483.1,6170.2c-23.6-8.5-47.2-17.1-84.6-30.6"/>
	</g>
	<g transform="translate(1990.9804412196384 2979.628380190983) rotate(0 94.33034391272838 -0.1684766969276552)">
		<path class="st6" d="M2879.9,6169.5c29.5-10.8,58.9-21.5,84.5-30.9 M2879.9,6169.5c23.6-8.6,47.1-17.2,84.5-30.9"/>
	</g>
	<g transform="translate(1990.9804412196384 2979.628380190983) rotate(0 94.33034391272838 -0.1684766969276552)">
		<path class="st6" d="M2879.8,6107.9c29.5,10.7,59,21.4,84.6,30.6 M2879.8,6107.9c23.6,8.5,47.2,17.1,84.6,30.6"/>
	</g>
</g>
<g transform="translate(2046.667805060051 3002.1186061871776) rotate(0 33.5 20)">
	<text transform="matrix(1 0 0 1 2509.3513 6226.5708)" class="st3 st13">uses DB</text>
	<text transform="matrix(1 0 0 1 2535.7283 6286.5708)" class="st3 st13">models</text>
</g>
<g transform="translate(2056.0810843592367 2895.866219931931) rotate(0 25.5 30)">
	<text transform="matrix(1 0 0 1 2544.5942 6014.0664)" class="st3 st13">syncs</text>
	<text transform="matrix(1 0 0 1 2545.938 6074.0654)" class="st3 st13">data</text>
	<text transform="matrix(1 0 0 1 2530.5552 6134.0654)" class="st3 st13">models</text>
</g>
<g transform="translate(2239.9590817629496 2552.8878941908406) rotate(0 28.5 10)">
	<text transform="matrix(1 0 0 1 2896.4255 5334.1104)" class="st12 st13">Create</text>
</g>
<g>
	<g transform="translate(2331.5690555893952 2562.7628941908406) rotate(0 98.541015625 0)">
		<path class="st18" d="M3079.6,5305.9c98.6,0,492.7,0,591.2,0"/>
	</g>
</g>
<g transform="translate(2240.098590691521 2605.4582066908406) rotate(0 19.5 10)">
	<text transform="matrix(1 0 0 1 2896.7046 5439.251)" class="st12 st13">Read</text>
</g>
<g>
	<g transform="translate(2331.708564517967 2615.4582066908406) rotate(0 98.541015625 0)">
		<path class="st18" d="M3079.9,5411.3c98.6,0,492.7,0,591.2,0"/>
	</g>
</g>
<g transform="translate(2240.098590691521 2658.0285191908406) rotate(0 28.5 10)">
	<text transform="matrix(1 0 0 1 2896.7046 5544.3916)" class="st12 st13">Update</text>
</g>
<g>
	<g transform="translate(2331.708564517967 2668.0285191908406) rotate(0 98.541015625 0)">
		<path class="st18" d="M3079.9,5516.4c98.6,0,492.7,0,591.2,0"/>
	</g>
</g>
<g transform="translate(2239.991168816521 2710.4673212741736) rotate(0 28.5 10)">
	<text transform="matrix(1 0 0 1 2896.4897 5649.269)" class="st12 st13">Delete</text>
</g>
<g>
	<g transform="translate(2331.601142642967 2720.4673212741736) rotate(0 98.541015625 0)">
		<path class="st18" d="M3079.7,5621.3c98.6,0,492.7,0,591.2,0"/>
	</g>
</g>
<g transform="translate(2595.7800453046175 2855.175246620444) rotate(0 63 12.5)">
	<text transform="matrix(1 0 0 1 3610.2295 5944.6841)" class="st3 st16">Dependencies</text>
</g>
<g transform="translate(2544.302250475748 2524.0354431122) rotate(0 114.47779482886907 187.5509946300407)">
	<path class="st19" d="M3505.1,5228.4c163.1,0,326.2,0,686.9,0 M4192,5228.4c0,372.2,0,744.4,0,1125.3 M4192,6353.7
		c-268.5,0-537,0-686.9,0 M3505.1,6353.7c0-359.6,0-719.2,0-1125.3"/>
</g>
<g transform="translate(2574.8810270052077 2744.301503290064) rotate(0 82 30)">
	<text transform="matrix(1 0 0 1 3566.2698 5710.937)" class="st3 st13">• db session manager</text>
	<text transform="matrix(1 0 0 1 3566.2698 5830.937)" class="st3 st13">• current user auth</text>
</g>
<g transform="translate(2442.9990424101143 3080.588425861736) rotate(0 59.5 18)">
	<text transform="matrix(1 0 0 1 3304.1453 6416.5112)" class="st3 st4">FastAPI</text>
</g>
<g transform="translate(2185.4836964279716 2205.9326402041265) rotate(0 317 479.1259765624999)">
	<path class="st6" d="M2787.5,4592.2c654.2,0,1308.4,0,1902,0 M2787.5,4592.2c388.9,0,777.7,0,1902,0 M4689.5,4592.2
		c0,750.6,0,1501.3,0,2874.8 M4689.5,4592.2c0,752.2,0,1504.3,0,2874.8 M4689.5,7466.9c-615.7,0-1231.4,0-1902,0 M4689.5,7466.9
		c-602.8,0-1205.6,0-1902,0 M2787.5,7466.9c0-1003.8,0-2007.7,0-2874.8 M2787.5,7466.9c0-659.3,0-1318.7,0-2874.8"/>
</g>
<g transform="translate(2442.9836964279716 3121.2833505443778) rotate(0 59.5 10)">
	<text transform="matrix(1 0 0 1 3303.4006 6464.9023)" class="st3 st13">FastAPI-Users</text>
</g>
<g transform="translate(3002.4148072837797 2204.9587466931243) rotate(0 292.451171875 103.943359375)">
	<path class="st6" d="M4421.3,4590.3c441.7,0,883.5,0,1754.7,0 M4421.3,4590.3c699.6,0,1399.3,0,1754.7,0 M6176,4590.3
		c0,239.2,0,478.5,0,623.7 M6176,4590.3c0,228.1,0,456.3,0,623.7 M6176,5213.9c-505.2,0-1010.4,0-1754.7,0 M6176,5213.9
		c-679.8,0-1359.6,0-1754.7,0 M4421.3,5213.9c0-167.5,0-334.9,0-623.7 M4421.3,5213.9c0-174.5,0-349.1,0-623.7"/>
</g>
<g transform="translate(3170.6706666587797 2339.8890852347904) rotate(0 124 18)">
	<text transform="matrix(1 0 0 1 4760.042 4935.1128)" class="st3 st4">Task Manager UI</text>
</g>
<g transform="translate(3207.3659791587797 2250.8604394014574) rotate(0 87.5 36)">
	<text transform="matrix(1 0 0 1 4833.001 4856.0547)" class="st12 st20">:5555</text>
</g>
<g transform="translate(2860.787052620218 2096.914126452499) rotate(0 48.37022569444446 71.48571047008534)">
	<path class="st1" d="M4138.1,4374.2h290.2v428.9h-290.2"/>
	<path class="st2" d="M4138.1,4374.2c93.4,0,186.7,0,290.2,0 M4428.3,4374.2c0,87.2,0,174.4,0,428.9 M4428.3,4803.1
		c-59.1,0-118.1,0-290.2,0 M4138.1,4803.1c0-123.9,0-247.8,0-428.9"/>
</g>
<g transform="translate(2859.977524041158 2184.115749048654) rotate(0 50.5 20)">
	<text transform="matrix(1 0 0 1 4135.2896 4590.5659)" class="st3 st13">Admin Access</text>
	<text transform="matrix(1 0 0 1 4154.5376 4650.5659)" class="st3 st13">Task Queue</text>
</g>
<g>
	<g transform="translate(3001.1776184596506 2206.056105038135) rotate(0 -90.62662312531288 -76.57779671225376)">
		<path class="st6" d="M4418.9,4592.4c-90.6-76.6-453.1-382.9-543.8-459.5 M4418.9,4592.4c-90.6-76.6-453.1-382.9-543.8-459.5"/>
	</g>
	<g transform="translate(3001.1776184596506 2206.056105038135) rotate(0 -90.62662312531288 -76.57779671225376)">
		<path class="st6" d="M3959.6,4164c-26.3-9.7-52.6-19.4-84.4-31.1 M3959.6,4164c-28.7-10.6-57.4-21.1-84.4-31.1"/>
	</g>
	<g transform="translate(3001.1776184596506 2206.056105038135) rotate(0 -90.62662312531288 -76.57779671225376)">
		<path class="st6" d="M3919.8,4211.1c-13.9-24.3-27.9-48.7-44.7-78.1 M3919.8,4211.1c-15.2-26.6-30.4-53.1-44.7-78.1"/>
	</g>
</g>
<g transform="translate(3002.545015617113 2961.8636946097904) rotate(0 292.451171875 103.943359375)">
	<path class="st6" d="M4421.6,6104.1c447,0,893.9,0,1754.7,0 M4421.6,6104.1c506.9,0,1013.9,0,1754.7,0 M6176.3,6104.1
		c0,201.7,0,403.4,0,623.7 M6176.3,6104.1c0,157.8,0,315.5,0,623.7 M6176.3,6727.7c-568.7,0-1137.4,0-1754.7,0 M6176.3,6727.7
		c-622.6,0-1245.2,0-1754.7,0 M4421.6,6727.7c0-193.3,0-386.6,0-623.7 M4421.6,6727.7c0-149.1,0-298.3,0-623.7"/>
</g>
<g transform="translate(3205.939763881002 3096.932922040346) rotate(0 89 18)">
	<text transform="matrix(1 0 0 1 4829.6128 6449.2002)" class="st3 st4">Backend API</text>
</g>
<g transform="translate(3207.496187492113 3007.654276207013) rotate(0 87.5 36)">
	<text transform="matrix(1 0 0 1 4833.2612 6369.6426)" class="st12 st20">:8888</text>
</g>
<g transform="translate(3002.349703117113 2554.35678116733) rotate(0 292.451171875 121.8828125)">
	<path class="st6" d="M4421.2,5289c668.4,0,1336.8,0,1754.7,0 M4421.2,5289c393.5,0,787,0,1754.7,0 M6175.9,5289
		c0,224.2,0,448.5,0,731.3 M6175.9,5289c0,188.7,0,377.3,0,731.3 M6175.9,6020.4c-447.8,0-895.7,0-1754.7,0 M6175.9,6020.4
		c-359,0-717.9,0-1754.7,0 M4421.2,6020.4c0-208.3,0-416.5,0-731.3 M4421.2,6020.4c0-170,0-339.9,0-731.3"/>
</g>
<g transform="translate(3130.800874992113 2739.12114816343) rotate(0 164 18)">
	<text transform="matrix(1 0 0 1 4679.4292 5733.5762)" class="st3 st4">OpenAPI Documentation</text>
</g>
<g transform="translate(3045.300874992113 2586.5028445920016) rotate(0 253.5 22)">
	<text transform="matrix(1 0 0 1 4507.1089 5458.3398)" class="st12 st11">ReDoc /api/v1/redoc</text>
</g>
<g transform="translate(3046.300874992113 2656.1381992547012) rotate(0 243 22)">
	<text transform="matrix(1 0 0 1 4509.1089 5597.6099)" class="st12 st11">Swagger /api/v1/docs</text>
</g>
<g transform="translate(3151.9169712042385 2848.192212657239) rotate(0 55.5 30)">
	<text transform="matrix(1 0 0 1 4720.6587 5918.7183)" class="st3 st13">Authenticated</text>
	<text transform="matrix(1 0 0 1 4888.606 5978.7183)" class="st3 st13">View of</text>
	<text transform="matrix(1 0 0 1 4783.7271 6038.7183)" class="st3 st13">API Layers</text>
</g>
<g>
	<g transform="translate(3218.227628932771 2878.307842214419) rotate(89.99999999999994 76.8768997498471 -0.11562955718056855)">
		<path class="st6" d="M5783-5006.5c76.9-0.1,384.4-0.6,461.2-0.7 M5783-5006.5c76.9-0.1,384.4-0.6,461.2-0.7"/>
	</g>
	<g transform="translate(3218.227628932771 2878.307842214419) rotate(89.99999999999994 76.8768997498471 -0.11562955718056855)">
		<path class="st6" d="M6159.7-4976.3c23.4-8.5,46.9-17.1,84.5-30.9 M6159.7-4976.3c24.8-9.1,49.6-18.1,84.5-30.9"/>
	</g>
	<g transform="translate(3218.227628932771 2878.307842214419) rotate(89.99999999999994 76.8768997498471 -0.11562955718056855)">
		<path class="st6" d="M6159.6-5037.8c23.5,8.5,46.9,17,84.6,30.7 M6159.6-5037.8c24.8,9,49.6,18,84.6,30.7"/>
	</g>
</g>
<g transform="translate(3171.2592083254463 1450.1343042781518) rotate(0 120 18)">
	<text transform="matrix(1 0 0 1 4760.9375 3155.6021)" class="st3 st4">EXPOSES PORTS</text>
</g>
<g transform="translate(2888.7882351728276 3083.5509405932253) rotate(0 23.07470703125 26.75163595085496)">
	<path class="st1" d="M4194.1,6347.4h138.4v160.5h-138.4"/>
	<path class="st2" d="M4194.1,6347.4c33.7,0,67.3,0,138.4,0 M4332.5,6347.4c0,58.4,0,116.8,0,160.5 M4332.5,6507.9
		c-34.9,0-69.9,0-138.4,0 M4194.1,6507.9c0-47.4,0-94.7,0-160.5"/>
</g>
<g>
	<g transform="translate(2991.6044711888057 3110.9654406260815) rotate(180 -83.39865837054924 -0.17617740446257812)">
		<path class="st6" d="M-4066.1-6401.6c-83.4-0.2-417-0.9-500.4-1 M-4066.1-6401.6c-83.4-0.2-417-0.9-500.4-1"/>
	</g>
	<g transform="translate(2991.6044711888057 3110.9654406260815) rotate(180 -83.39865837054924 -0.17617740446257812)">
		<path class="st6" d="M-4150.8-6371c23.4-8.5,46.9-17,84.6-30.6 M-4150.8-6371c17.5-6.3,35.1-12.7,84.6-30.6"/>
	</g>
	<g transform="translate(2991.6044711888057 3110.9654406260815) rotate(180 -83.39865837054924 -0.17617740446257812)">
		<path class="st6" d="M-4150.6-6432.5c23.4,8.6,46.8,17.1,84.5,31 M-4150.6-6432.5c17.5,6.4,35.1,12.8,84.5,31"/>
	</g>
	<g transform="translate(2991.6044711888057 3110.9654406260815) rotate(180 -83.39865837054924 -0.17617740446257812)">
		<path class="st6" d="M-4481.9-6433.2c-23.4,8.5-46.9,16.9-84.7,30.6 M-4481.9-6433.2c-17.6,6.3-35.1,12.7-84.7,30.6"/>
	</g>
	<g transform="translate(2991.6044711888057 3110.9654406260815) rotate(180 -83.39865837054924 -0.17617740446257812)">
		<path class="st6" d="M-4482-6371.6c-23.4-8.6-46.8-17.2-84.5-31 M-4482-6371.6c-17.5-6.4-35-12.8-84.5-31"/>
	</g>
</g>
<g transform="translate(3657.7228054853313 3001.6876593432253) rotate(0 33.93408203125 26.751635950854848)">
	<path class="st1" d="M5732,6183.7h203.6v160.5H5732"/>
	<path class="st2" d="M5732,6183.7c72.2,0,144.4,0,203.6,0 M5935.6,6183.7c0,56.5,0,113.1,0,160.5 M5935.6,6344.2
		c-49.6,0-99.2,0-203.6,0 M5732,6344.2c0-58.8,0-117.7,0-160.5"/>
</g>
<g>
	<g transform="translate(3752.0330166147955 3025.843918697114) rotate(180 -81.66897879678771 0.18985265291121323)">
		<path class="st6" d="M-5593.9-6232.8c-81.7,0.2-408.3,1-490,1.1 M-5593.9-6232.8c-81.7,0.2-408.3,1-490,1.1"/>
	</g>
	<g transform="translate(3752.0330166147955 3025.843918697114) rotate(180 -81.66897879678771 0.18985265291121323)">
		<path class="st6" d="M-5678.4-6201.8c20.4-7.5,40.8-15,84.5-31 M-5678.4-6201.8c29.3-10.7,58.6-21.5,84.5-31"/>
	</g>
	<g transform="translate(3752.0330166147955 3025.843918697114) rotate(180 -81.66897879678771 0.18985265291121323)">
		<path class="st6" d="M-5678.5-6263.4c20.4,7.4,40.9,14.8,84.6,30.6 M-5678.5-6263.4c29.3,10.6,58.6,21.2,84.6,30.6"/>
	</g>
	<g transform="translate(3752.0330166147955 3025.843918697114) rotate(180 -81.66897879678771 0.18985265291121323)">
		<path class="st6" d="M-5999.4-6262.6c-20.4,7.5-40.8,15-84.5,31 M-5999.4-6262.6c-29.3,10.7-58.6,21.5-84.5,31"/>
	</g>
	<g transform="translate(3752.0330166147955 3025.843918697114) rotate(180 -81.66897879678771 0.18985265291121323)">
		<path class="st6" d="M-5999.3-6201.1c-20.4-7.4-40.9-14.8-84.7-30.6 M-5999.3-6201.1c-29.3-10.6-58.7-21.2-84.7-30.6"/>
	</g>
</g>
<g transform="translate(3001.7354918075894 1548.8853959986795) rotate(0 292.451171875 71.10888671875)">
	<path class="st6" d="M4420,3278.1c463.2,0,926.5,0,1754.7,0 M4420,3278.1c637.6,0,1275.1,0,1754.7,0 M6174.7,3278.1
		c0,124.8,0,249.6,0,426.7 M6174.7,3278.1c0,130.1,0,260.1,0,426.7 M6174.7,3704.8c-404.2,0-808.4,0-1754.7,0 M6174.7,3704.8
		c-697.3,0-1394.6,0-1754.7,0 M4420,3704.8c0-162.1,0-324.2,0-426.7 M4420,3704.8c0-101.4,0-202.9,0-426.7"/>
</g>
<g transform="translate(3235.5011168075894 1597.3604936549295) rotate(0 58.5 23)">
	<text transform="matrix(1 0 0 1 4889.1313 3471.0547)" class="st3 st11">NGINX</text>
</g>
<g>
	<g transform="translate(2911.718784473596 1384.9661871693156) rotate(0 195.03962053571425 -111.57147507440479)">
		<path class="st10" d="M4239.9,2950.3c195-111.6,975.2-557.8,1170.2-669.4"/>
	</g>
</g>
<g transform="translate(3761.5993775962797 1546.639410755624) rotate(0 115.3662109375 103.943359375)">
	<path class="st6" d="M5939.7,3273.6c252.6,0,505.1,0,692.2,0 M5939.7,3273.6c243.9,0,487.9,0,692.2,0 M6631.9,3273.6
		c0,189.9,0,379.9,0,623.7 M6631.9,3273.6c0,180.4,0,360.9,0,623.7 M6631.9,3897.3c-188.3,0-376.6,0-692.2,0 M6631.9,3897.3
		c-186.2,0-372.4,0-692.2,0 M5939.7,3897.3c0-129.2,0-258.4,0-623.7 M5939.7,3897.3c0-218.9,0-437.8,0-623.7"/>
</g>
<g transform="translate(3828.9655885337797 1670.967535755624) rotate(0 50 23)">
	<text transform="matrix(1 0 0 1 6076.6436 3618.2688)" class="st3 st11">DIST</text>
</g>
<g transform="translate(3816.9655885337797 1608.772223255624) rotate(0 60 12.5)">
	<text transform="matrix(1 0 0 1 6052.2412 3451.8782)" class="st3 st16">build output</text>
</g>
<g>
	<g transform="translate(3258.0023673361616 1056.885703813097) rotate(0 -37.090200696044676 135.5529513888887)">
		<path class="st6" d="M4932.5,2294.1c-36.2,63.8-190.7,247.1-217.4,382.7c-26.7,135.6,47.9,358.9,57.5,430.7 M4932.5,2294.1
			c-36.2,63.8-190.7,247.1-217.4,382.7c-26.7,135.6,47.9,358.9,57.5,430.7"/>
	</g>
	<g transform="translate(3258.0023673361616 1056.885703813097) rotate(0 -37.090200696044676 135.5529513888887)">
		<path class="st6" d="M4724.5,3031.4c12.4,19.6,24.8,39.1,48.2,76.1 M4724.5,3031.4c17.7,28,35.5,56,48.2,76.1"/>
	</g>
	<g transform="translate(3258.0023673361616 1056.885703813097) rotate(0 -37.090200696044676 135.5529513888887)">
		<path class="st6" d="M4784.6,3018.2c-3.1,23-6.2,45.9-12,89.2 M4784.6,3018.2c-4.4,32.8-8.9,65.7-12,89.2"/>
	</g>
</g>
<g transform="translate(3657.383612776998 1593.3816697598918) rotate(0 35.14990234375 26.751635950854904)">
	<path class="st1" d="M5731.3,3367.1h210.9v160.5h-210.9"/>
	<path class="st2" d="M5731.3,3367.1c68.9,0,137.7,0,210.9,0 M5942.2,3367.1c0,40.4,0,80.9,0,160.5 M5942.2,3527.6
		c-79,0-158.1,0-210.9,0 M5731.3,3527.6c0-43.3,0-86.6,0-160.5"/>
</g>
<g>
	<g transform="translate(3754.782320304613 1621.5275525307798) rotate(180 -81.67082790613165 -0.1960488087074168)">
		<path class="st6" d="M-5599.4-3422.6c-81.7-0.2-408.4-1-490-1.2 M-5599.4-3422.6c-81.7-0.2-408.4-1-490-1.2"/>
	</g>
	<g transform="translate(3754.782320304613 1621.5275525307798) rotate(180 -81.67082790613165 -0.1960488087074168)">
		<path class="st6" d="M-5684-3392c28.6-10.3,57.1-20.6,84.7-30.6 M-5684-3392c30.5-11,61-22,84.7-30.6"/>
	</g>
	<g transform="translate(3754.782320304613 1621.5275525307798) rotate(180 -81.67082790613165 -0.1960488087074168)">
		<path class="st6" d="M-5683.9-3453.6c28.5,10.5,57,20.9,84.5,31 M-5683.9-3453.6c30.4,11.2,60.9,22.3,84.5,31"/>
	</g>
	<g transform="translate(3754.782320304613 1621.5275525307798) rotate(180 -81.67082790613165 -0.1960488087074168)">
		<path class="st6" d="M-6004.8-3454.4c-28.6,10.3-57.1,20.6-84.6,30.6 M-6004.8-3454.4c-30.5,11-61,22.1-84.6,30.6"/>
	</g>
	<g transform="translate(3754.782320304613 1621.5275525307798) rotate(180 -81.67082790613165 -0.1960488087074168)">
		<path class="st6" d="M-6004.9-3392.8c-28.5-10.5-57-20.9-84.5-31 M-6004.9-3392.8c-30.4-11.2-60.8-22.3-84.5-31"/>
	</g>
</g>
<g transform="translate(4992.81324478378 1628.136481068124) rotate(0 145 22.5)">
	<text transform="matrix(1 0 0 1 8402.1357 3532.6067)" class="st3 st11">Solid-App-Router</text>
</g>
<g transform="translate(3797.8000844415174 1910.100710701588) rotate(0 27 17.5)">
	<text transform="matrix(1 0 0 1 6012.1079 4075.5352)" class="st3 st4">YUP</text>
</g>
<g transform="translate(3843.110907400772 2969.0512315349215) rotate(0 46 23)">
	<text transform="matrix(1 0 0 1 6102.7285 6214.437)" class="st3 st11">Axios</text>
</g>
<g transform="translate(3843.368719900772 3023.5902940349215) rotate(0 108 10)">
	<text transform="matrix(1 0 0 1 6103.2441 6269.5151)" class="st3 st13">&quot;openapi-typescript-codegen&quot;</text>
</g>
<g transform="translate(4044.5681275962797 1546.693121693124) rotate(0 349.5029296875 103.943359375)">
	<path class="st6" d="M6505.6,3273.7c773.1,0,1546.2,0,2097,0 M6505.6,3273.7c780,0,1560.1,0,2097,0 M8602.7,3273.7
		c0,219.3,0,438.6,0,623.7 M8602.7,3273.7c0,247.1,0,494.3,0,623.7 M8602.7,3897.4c-524.7,0-1049.4,0-2097,0 M8602.7,3897.4
		c-757.5,0-1514.9,0-2097,0 M6505.6,3897.4c0-159.5,0-318.9,0-623.7 M6505.6,3897.4c0-197.1,0-394.3,0-623.7"/>
</g>
<g transform="translate(4299.07105728378 1632.636481068124) rotate(0 95 18)">
	<text transform="matrix(1 0 0 1 7016.7427 3520.6067)" class="st3 st4">Solid – Start</text>
</g>
<g transform="translate(5858.679455721279 1384.3938084782535) rotate(0 217.0625 57.34765625)">
	<path class="st0" d="M8335.8-295.6c436.4,0,872.7,0,1302.4,0 M9638.2-295.6c0,114.9,0,229.7,0,344.1 M9638.2,48.5
		c-279.5,0-559,0-1302.4,0 M8335.8,48.5c0-137.1,0-274.2,0-344.1"/>
</g>
<g transform="translate(6026.741955721279 1418.7414647282535) rotate(0 49 22.5)">
	<text transform="matrix(1 0 0 1 8674.0742 -130.8556)" class="st3 st11">Fetch</text>
</g>
<g transform="translate(4702.431594858184 3019.398887784921) rotate(0 133.5 22.5)">
	<text transform="matrix(1 0 0 1 7823.0874 6315.1323)" class="st3 st11">State Provider</text>
</g>
<g transform="translate(4653.905553191517 2388.7754319609803) rotate(0 182 22.5)">
	<text transform="matrix(1 0 0 1 7725.252 5053.8848)" class="st3 st11">Notification Provider</text>
</g>
<g transform="translate(3075.9816098200117 910.8300574570128) rotate(0 218.6291610054344 40.389322916666636)">
	<text transform="matrix(1 0 0 1 4570.9126 2172.3301)" class="st3 st21">Traefix Proxy</text>
</g>
<g transform="translate(3002.1595989504463 847.2760209986794) rotate(0 292.451171875 103.94335937500001)">
	<path class="st6" d="M4420.8,1874.9c451.7,0,903.4,0,1754.7,0 M4420.8,1874.9c630.9,0,1261.9,0,1754.7,0 M6175.5,1874.9
		c0,136.1,0,272.1,0,623.7 M6175.5,1874.9c0,149.6,0,299.3,0,623.7 M6175.5,2498.6c-444.8,0-889.7,0-1754.7,0 M6175.5,2498.6
		c-356.8,0-713.6,0-1754.7,0 M4420.8,2498.6c0-166.9,0-333.8,0-623.7 M4420.8,2498.6c0-190.2,0-380.4,0-623.7"/>
</g>
<g transform="translate(2566.2773338233897 2253.191721385781) rotate(0 18 12)">
	<text transform="matrix(1 0 0 1 3549.062 4746.7178)" class="st12 st16">API</text>
</g>
<g transform="translate(2709.7747296567227 2310.3151778446863) rotate(0 19.5 10)">
	<text transform="matrix(1 0 0 1 3840.5571 4848.9644)" class="st12 st13">Auth</text>
</g>
<g transform="translate(2700.7747296567227 2340.9138174862946) rotate(0 24 10)">
	<text transform="matrix(1 0 0 1 3821.4321 4910.1616)" class="st12 st13">Users</text>
</g>
<g transform="translate(2700.7747296567227 2402.787315082449) rotate(0 24 10)">
	<text transform="matrix(1 0 0 1 3821.4321 5033.9092)" class="st12 st13">Items</text>
</g>
<g transform="translate(2681.7747296567227 2372.457059400631) rotate(0 33.5 10)">
	<text transform="matrix(1 0 0 1 3784.1821 4973.248)" class="st12 st13">Clients</text>
</g>
<g transform="translate(2566.2773338233897 2310.42194867802) rotate(0 10 10)">
	<text transform="matrix(1 0 0 1 3549.062 4849.1777)" class="st12 st13">V1</text>
</g>
<g>
	<g transform="translate(2229.3572252105623 2826.5752848470643) rotate(89.99999999999994 10.573893229168107 0)">
		<path class="st18" d="M5812.3-2896.4c10.6,0,52.9,0,63.5,0"/>
	</g>
</g>
<g>
	<g transform="translate(2438.1560533355623 2826.5752848470643) rotate(89.99999999999994 10.573893229168107 0)">
		<path class="st18" d="M5812.3-3314c10.6,0,52.9,0,63.5,0"/>
	</g>
</g>
<g>
	<g transform="translate(2229.2498033355623 2910.3441650553978) rotate(89.99999999999994 10.573893229168107 0)">
		<path class="st18" d="M5979.9-2896.2c10.6,0,52.9,0,63.5,0"/>
	</g>
</g>
<g>
	<g transform="translate(2438.0486314605623 2910.3441650553978) rotate(89.99999999999994 10.573893229168107 0)">
		<path class="st18" d="M5979.9-3313.8c10.6,0,52.9,0,63.5,0"/>
	</g>
</g>
<g>
	<g transform="translate(2229.2498033355623 2994.7842692220647) rotate(89.99999999999994 10.573893229168107 0)">
		<path class="st18" d="M6148.8-2896.2c10.6,0,52.9,0,63.5,0"/>
	</g>
</g>
<g transform="translate(1545.8339568446384 3104.113664295178) rotate(0 122 18)">
	<text transform="matrix(1 0 0 1 1509.3678 6463.562)" class="st3 st4">Database Models</text>
</g>
<g>
	<g transform="translate(2438.0486314605623 2994.7842692220647) rotate(89.99999999999994 10.573893229168107 0)">
		<path class="st18" d="M6148.8-3313.8c10.6,0,52.9,0,63.5,0"/>
	</g>
</g>
<g>
	<g transform="translate(2543.311652293896 2994.7842692220647) rotate(89.99999999999994 10.573893229168107 0)">
		<path class="st18" d="M6148.8-3524.3c10.6,0,52.9,0,63.5,0"/>
	</g>
</g>
<g>
	<g transform="translate(2752.110480418896 2994.7842692220647) rotate(89.99999999999994 10.573893229168107 0)">
		<path class="st18" d="M6148.8-3941.9c10.6,0,52.9,0,63.5,0"/>
	</g>
</g>
<g transform="translate(1630.651448164083 1548.2412684618448) rotate(0 36.5 18)">
	<text transform="matrix(1 0 0 1 1679.9595 3351.8164)" class="st3 st4">Redis</text>
</g>
<g transform="translate(1350.188557539083 1481.5379567625687) rotate(0 316.962890625 103.943359375)">
	<path class="st6" d="M1116.9,3143.4c542.5,0,1085,0,1901.8,0 M1116.9,3143.4c704.6,0,1409.1,0,1901.8,0 M3018.7,3143.4
		c0,209.4,0,418.8,0,623.7 M3018.7,3143.4c0,180.8,0,361.6,0,623.7 M3018.7,3767.1c-394.4,0-788.8,0-1901.8,0 M3018.7,3767.1
		c-548.2,0-1096.3,0-1901.8,0 M1116.9,3767.1c0-197.2,0-394.4,0-623.7 M1116.9,3767.1c0-202.8,0-405.7,0-623.7"/>
</g>
<g transform="translate(1554.651448164083 1598.9951747118448) rotate(0 112.5 12.5)">
	<text transform="matrix(1 0 0 1 1527.1646 3432.3242)" class="st3 st16">In-Memory Data Store</text>
</g>
<g transform="translate(1546.6126026779716 2394.7343240174) rotate(0 121 18)">
	<text transform="matrix(1 0 0 1 1511.9144 5044.8027)" class="st3 st4">MySQL Database</text>
</g>
<g transform="translate(3077.670201629018 1738.5625173450894) rotate(0 52.5 36)">
	<text transform="matrix(1 0 0 1 4572.9038 3831.459)" class="st12 st20">:80</text>
</g>
<g transform="translate(3104.170201629018 1816.7699122334384) rotate(0 26 12.5)">
	<text transform="matrix(1 0 0 1 4626.2593 3867.8738)" class="st3 st16">public</text>
</g>
<g transform="translate(3001.7257261825894 1720.6376281415367) rotate(0 128.44447544642856 71.89968039772725)">
	<path class="st6" d="M4420,3621.6c300.3,0,600.5,0,770.7,0 M4420,3621.6c214.1,0,428.2,0,770.7,0 M5190.6,3621.6
		c0,114.3,0,228.6,0,431.4 M5190.6,3621.6c0,169.1,0,338.1,0,431.4 M5190.6,4053c-154.2,0-308.5,0-770.7,0 M5190.6,4053
		c-171,0-342,0-770.7,0 M4420,4053c0-128.2,0-256.5,0-431.4 M4420,4053c0-158.1,0-316.2,0-431.4"/>
</g>
<g transform="translate(3387.522043146875 1738.3110771620086) rotate(0 70 36)">
	<text transform="matrix(1 0 0 1 5192.96 3830.9565)" class="st12 st20">:443</text>
</g>
<g transform="translate(3425.506418146875 1816.9229859392465) rotate(0 32 12.5)">
	<text transform="matrix(1 0 0 1 5269.4111 3868.1797)" class="st3 st16">secure</text>
</g>
<g transform="translate(3329.0775677004463 1720.7587218915367) rotate(0 128.44447544642856 71.62002840909093)">
	<path class="st6" d="M5074.7,3621.9c218.3,0,436.6,0,770.7,0 M5074.7,3621.9c294,0,588,0,770.7,0 M5845.3,3621.9
		c0,134.3,0,268.6,0,429.7 M5845.3,3621.9c0,113.5,0,226.9,0,429.7 M5845.3,4051.6c-249.3,0-498.6,0-770.7,0 M5845.3,4051.6
		c-195.7,0-391.3,0-770.7,0 M5074.7,4051.6c0-99,0-197.9,0-429.7 M5074.7,4051.6c0-128.2,0-256.5,0-429.7"/>
</g>
<g transform="translate(3363.6309996200894 1909.2120561549295) rotate(0 94.5 12)">
	<text transform="matrix(1 0 0 1 5146.019 4058.7578)" class="st12 st16">TLS Cert Manager</text>
</g>
<g transform="translate(3329.2169371200894 1888.9361772486795) rotate(0 128.9140625 32.27587890625)">
	<path class="st6" d="M5074.9,3958.2c220,0,439.9,0,773.5,0 M5074.9,3958.2c241.1,0,482.2,0,773.5,0 M5848.4,3958.2
		c0,59,0,118,0,193.7 M5848.4,3958.2c0,61.6,0,123.2,0,193.7 M5848.4,4151.9c-216,0-432.1,0-773.5,0 M5848.4,4151.9
		c-233.8,0-467.6,0-773.5,0 M5074.9,4151.9c0-55.3,0-110.6,0-193.7 M5074.9,4151.9c0-68.2,0-136.4,0-193.7"/>
</g>
<g transform="translate(3518.738270597461 1611.6462948917022) rotate(0 22 10)">
	<text transform="matrix(1 0 0 1 5455.2085 3445.6262)" class="st3 st13">hosts</text>
</g>
<g transform="translate(4567.939407358184 1991.331830493255) rotate(0 71 18)">
	<text transform="matrix(1 0 0 1 7552.3862 4237.9976)" class="st3 st4">Navigation</text>
</g>
<g transform="translate(4807.794876108184 1991.331830493255) rotate(0 45.5 18)">
	<text transform="matrix(1 0 0 1 8032.0972 4237.9976)" class="st3 st4">Footer</text>
</g>
<g transform="translate(4996.572219858184 1991.331830493255) rotate(0 53.5 18)">
	<text transform="matrix(1 0 0 1 8409.6523 4237.9976)" class="st3 st4">Counter</text>
</g>
<g transform="translate(4799.33570572128 1546.693121693124) rotate(0 338.4775390624998 103.943359375)">
	<path class="st6" d="M8015.2,3273.7c793.3,0,1586.6,0,2030.9,0 M8015.2,3273.7c409.7,0,819.5,0,2030.9,0 M10046.1,3273.7
		c0,199.6,0,399.1,0,623.7 M10046.1,3273.7c0,247.4,0,494.9,0,623.7 M10046.1,3897.4c-743.7,0-1487.3,0-2030.9,0 M10046.1,3897.4
		c-672.1,0-1344.2,0-2030.9,0 M8015.2,3897.4c0-208.4,0-416.8,0-623.7 M8015.2,3897.4c0-131.7,0-263.4,0-623.7"/>
</g>
<g transform="translate(4197.708938608184 2526.6843326306234) rotate(0 638.2226562499999 285.85412016369037)">
	<path class="st6" d="M6811.9,5233.7c1498.6,0,2997.2,0,3829.4,0 M6811.9,5233.7c1303.6,0,2607.1,0,3829.4,0 M10641.3,5233.7
		c0,638.5,0,1276.9,0,1715.1 M10641.3,5233.7c0,466.6,0,933.3,0,1715.1 M10641.3,6948.8c-1336.3,0-2672.6,0-3829.4,0
		 M10641.3,6948.8c-1405.8,0-2811.5,0-3829.4,0 M6811.9,6948.8c0-459.1,0-918.1,0-1715.1 M6811.9,6948.8c0-624.3,0-1248.6,0-1715.1"
		/>
</g>
<g transform="translate(3761.5993775962797 2907.899176380624) rotate(0 196.6503906250001 95.38867187499989)">
	<path class="st6" d="M5939.7,5996.1c322.2,0,644.4,0,1179.9,0 M5939.7,5996.1c286,0,572,0,1179.9,0 M7119.6,5996.1
		c0,158.9,0,317.7,0,572.3 M7119.6,5996.1c0,142.2,0,284.3,0,572.3 M7119.6,6568.5c-432.1,0-864.3,0-1179.9,0 M7119.6,6568.5
		c-343.8,0-687.5,0-1179.9,0 M5939.7,6568.5c0-207.7,0-415.4,0-572.3 M5939.7,6568.5c0-174,0-348.1,0-572.3"/>
</g>
<g transform="translate(4381.746513012946 2920.3223714393134) rotate(0 39 17.5)">
	<text transform="matrix(1 0 0 1 7182.0908 6095.9785)" class="st3 st4">Agent</text>
</g>
<g transform="translate(4237.860143035266 2565.381476722052) rotate(0 184.60921223958314 210.27411179315482)">
	<path class="st17" d="M6892.2,5311.1c403,0,805.9,0,1107.7,0 M6892.2,5311.1c248.2,0,496.3,0,1107.7,0 M7999.9,5311.1
		c0,360.8,0,721.5,0,1261.6 M7999.9,5311.1c0,454.2,0,908.5,0,1261.6 M7999.9,6572.7c-344,0-688.1,0-1107.7,0 M7999.9,6572.7
		c-247.8,0-495.6,0-1107.7,0 M6892.2,6572.7c0-270.7,0-541.3,0-1261.6 M6892.2,6572.7c0-334.7,0-669.4,0-1261.6"/>
</g>
<g transform="translate(4292.941453489136 2618.041749229492) rotate(0 129.5 12)">
	<text transform="matrix(1 0 0 1 7004.1714 5473.4175)" class="st12 st16">Async Requests Handler</text>
</g>
<g transform="translate(4261.130232320982 2590.744199936337) rotate(0 161.24425688244037 39.297549293154816)">
	<path class="st22" d="M6938.8,5361.8c255,0,510,0,967.5,0 M6938.8,5361.8c383.7,0,767.4,0,967.5,0 M7906.2,5361.8
		c0,90.7,0,181.4,0,235.8 M7906.2,5361.8c0,53.7,0,107.5,0,235.8 M7906.2,5597.6c-255.6,0-511.2,0-967.5,0 M7906.2,5597.6
		c-381.4,0-762.9,0-967.5,0 M6938.8,5597.6c0-61.7,0-123.5,0-235.8 M6938.8,5597.6c0-64.3,0-128.5,0-235.8"/>
</g>
<g transform="translate(5004.293364761457 2920.383755367885) rotate(0 55.5 17.5)">
	<text transform="matrix(1 0 0 1 8426.9971 6096.1025)" class="st3 st4">Services</text>
</g>
<g transform="translate(4680.142299843303 2564.600226722051) rotate(0 379.5729399181547 210.38571893601193)">
	<path class="st17" d="M7776.8,5309.5c789.8,0,1579.7,0,2277.4,0 M7776.8,5309.5c860.6,0,1721.3,0,2277.4,0 M10054.2,5309.5
		c0,338.1,0,676.1,0,1262.3 M10054.2,5309.5c0,365.1,0,730.2,0,1262.3 M10054.2,6571.8c-592.3,0-1184.5,0-2277.4,0 M10054.2,6571.8
		c-602.3,0-1204.6,0-2277.4,0 M7776.8,6571.8c0-387.7,0-775.5,0-1262.3 M7776.8,6571.8c0-479.3,0-958.7,0-1262.3"/>
</g>
<g transform="translate(4369.675828489136 2725.045097443777) rotate(0 53 12)">
	<text transform="matrix(1 0 0 1 7156.6558 5687.4248)" class="st12 st16">JWT Token</text>
</g>
<g transform="translate(4261.364607320981 2697.6359410077653) rotate(0 161.24425688244025 39.297549293154816)">
	<path class="st23" d="M6939.2,5575.6c204.1,0,408.2,0,967.5,0 M7906.7,5575.6c0,63.9,0,127.7,0,235.8 M7906.7,5811.4
		c-380.9,0-761.9,0-967.5,0 M6939.2,5811.4c0-73,0-146.1,0-235.8"/>
</g>
<g transform="translate(4351.871140989136 2833.1217343485396) rotate(0 71 12)">
	<text transform="matrix(1 0 0 1 7122.312 5903.5776)" class="st12 st16">API Base URL</text>
</g>
<g transform="translate(4261.559919820982 2805.712577912527) rotate(0 161.24425688244037 39.297549293154816)">
	<path class="st24" d="M6939.6,5791.8c202.1,0,404.3,0,967.5,0 M7907.1,5791.8c0,90.6,0,181.2,0,235.8 M7907.1,6027.6
		c-380,0-760,0-967.5,0 M6939.6,6027.6c0-71.3,0-142.6,0-235.8"/>
</g>
<g transform="translate(4741.6873379757435 2832.904100419968) rotate(0 35.5 12)">
	<text transform="matrix(1 0 0 1 7899.8823 5903.1421)" class="st12 st16">Common</text>
</g>
<g transform="translate(4707.204241807589 2805.4949439839556) rotate(0 352.43287295386915 39.297549293154816)">
	<path class="st24" d="M7830.9,5791.3c830.9,0,1661.8,0,2114.6,0 M9945.5,5791.3c0,82.6,0,165.2,0,235.8 M9945.5,6027.1
		c-728.7,0-1457.4,0-2114.6,0 M7830.9,6027.1c0-76.5,0-153,0-235.8"/>
</g>
<g transform="translate(4741.8045254757435 2724.687954586634) rotate(0 24 12)">
	<text transform="matrix(1 0 0 1 7900.1167 5686.7104)" class="st12 st16">Auth</text>
</g>
<g transform="translate(4707.120536450446 2697.2787981506226) rotate(0 352.43287295386915 39.297549293154816)">
	<path class="st23" d="M7830.7,5574.9c686.6,0,1373.2,0,2114.6,0 M9945.4,5574.9c0,79.8,0,159.6,0,235.8 M9945.4,5810.7
		c-435.9,0-871.8,0-2114.6,0 M7830.7,5810.7c0-55.6,0-111.2,0-235.8"/>
</g>
<g transform="translate(4741.8045254757435 2618.498222443777) rotate(0 30 12)">
	<text transform="matrix(1 0 0 1 7900.1167 5474.3311)" class="st12 st16">Users</text>
</g>
<g transform="translate(4707.120536450446 2591.0890660077653) rotate(0 352.43287295386915 39.297549293154816)">
	<path class="st22" d="M7830.7,5362.5c509.4,0,1018.8,0,2114.6,0 M7830.7,5362.5c777.3,0,1554.7,0,2114.6,0 M9945.4,5362.5
		c0,88.6,0,177.1,0,235.8 M9945.4,5362.5c0,51.4,0,102.8,0,235.8 M9945.4,5598.3c-630.4,0-1260.8,0-2114.6,0 M9945.4,5598.3
		c-482.3,0-964.6,0-2114.6,0 M7830.7,5598.3c0-78.9,0-157.8,0-235.8 M7830.7,5598.3c0-89.6,0-179.2,0-235.8"/>
</g>
<g transform="translate(4197.69591777485 2360.1478742972904) rotate(0 638.22265625 51.21219308035688)">
	<path class="st6" d="M6811.9,4900.6c1313.3,0,2626.6,0,3829.4,0 M6811.9,4900.6c1098.6,0,2197.3,0,3829.4,0 M10641.2,4900.6
		c0,87.7,0,175.3,0,307.3 M10641.2,4900.6c0,74,0,148,0,307.3 M10641.2,5207.9c-1119.2,0-2238.5,0-3829.4,0 M10641.2,5207.9
		c-1229.7,0-2459.3,0-3829.4,0 M6811.9,5207.9c0-105.7,0-211.3,0-307.3 M6811.9,5207.9c0-99.8,0-199.7,0-307.3"/>
</g>
<g transform="translate(4700.91857402485 2226.9720465443133) rotate(0 135 22.5)">
	<text transform="matrix(1 0 0 1 7820.6182 4730.2778)" class="st3 st11">Theme Provider</text>
</g>
<g transform="translate(4197.69591777485 2198.259853463957) rotate(0 638.22265625 51.21219308035677)">
	<path class="st6" d="M6811.9,4576.9c1300.4,0,2600.8,0,3829.4,0 M6811.9,4576.9c1509.3,0,3018.6,0,3829.4,0 M10641.2,4576.9
		c0,120.7,0,241.4,0,307.3 M10641.2,4576.9c0,116.4,0,232.8,0,307.3 M10641.2,4884.1c-936.7,0-1873.3,0-3829.4,0 M10641.2,4884.1
		c-766.3,0-1532.5,0-3829.4,0 M6811.9,4884.1c0-97.8,0-195.6,0-307.3 M6811.9,4884.1c0-100.5,0-201.1,0-307.3"/>
</g>
<g transform="translate(4731.639928191517 1838.020223627647) rotate(0 104.5 22.5)">
	<text transform="matrix(1 0 0 1 7880.7383 3952.3743)" class="st3 st11">Page Route</text>
</g>
<g transform="translate(4197.69591777485 1804.5749576306237) rotate(0 638.22265625 51.212193080356826)">
	<path class="st6" d="M6811.9,3789.5c882.9,0,1765.8,0,3829.4,0 M6811.9,3789.5c1462.9,0,2925.9,0,3829.4,0 M10641.2,3789.5
		c0,63.5,0,127.1,0,307.3 M10641.2,3789.5c0,97,0,194,0,307.3 M10641.2,4096.7c-861.8,0-1723.7,0-3829.4,0 M10641.2,4096.7
		c-1200.6,0-2401.2,0-3829.4,0 M6811.9,4096.7c0-82.1,0-164.3,0-307.3 M6811.9,4096.7c0-74.9,0-149.8,0-307.3"/>
</g>
<g transform="translate(4737.139928191517 2080.1165777943133) rotate(0 99 22.5)">
	<text transform="matrix(1 0 0 1 7892.5723 4436.5669)" class="st3 st11">Components</text>
</g>
<g transform="translate(4197.533157358184 1954.099697213957) rotate(0 638.2226562499998 99.50971912202351)">
	<path class="st6" d="M6811.6,4088.5c828.7,0,1657.4,0,3829.4,0 M6811.6,4088.5c1158.8,0,2317.6,0,3829.4,0 M10640.9,4088.5
		c0,122.8,0,245.5,0,597.1 M10640.9,4088.5c0,195.2,0,390.5,0,597.1 M10640.9,4685.6c-1093.3,0-2186.6,0-3829.4,0 M10640.9,4685.6
		c-1147.5,0-2295,0-3829.4,0 M6811.6,4685.6c0-238.6,0-477.1,0-597.1 M6811.6,4685.6c0-206.3,0-412.6,0-597.1"/>
</g>
<g transform="translate(3761.5993775962797 1804.1882388806239) rotate(0 196.6503906250001 527.0292968749999)">
	<path class="st6" d="M5939.7,3788.7c272.4,0,544.8,0,1179.9,0 M5939.7,3788.7c412.6,0,825.2,0,1179.9,0 M7119.6,3788.7
		c0,1121.9,0,2243.9,0,3162.2 M7119.6,3788.7c0,1046.8,0,2093.5,0,3162.2 M7119.6,6950.9c-457.5,0-915,0-1179.9,0 M7119.6,6950.9
		c-464.5,0-929,0-1179.9,0 M5939.7,6950.9c0-904.8,0-1809.5,0-3162.2 M5939.7,6950.9c0-1165.1,0-2330.1,0-3162.2"/>
</g>
<g transform="translate(3797.8000844415174 1833.9121507109803) rotate(0 147.5 22.5)">
	<text transform="matrix(1 0 0 1 6014.0259 3944.1582)" class="st3 st11">Vendor Packages</text>
</g>
<g transform="translate(3797.8000844415174 1975.3155544515876) rotate(0 35.5 17.5)">
	<text transform="matrix(1 0 0 1 6012.1079 4205.9648)" class="st3 st4">Felte</text>
</g>
<g transform="translate(3797.8000844415174 2025.4001898682543) rotate(0 52.5 25)">
	<text transform="matrix(1 0 0 1 6012.1079 4285.1343)" class="st3 st16">• Validator</text>
	<text transform="matrix(1 0 0 1 6012.1079 4360.1343)" class="st3 st16">• Reporter</text>
</g>
<g transform="translate(5953.580497387946 1175.590423061587) rotate(0 122.5 32.5)">
	<text transform="matrix(1 0 0 1 8525.5771 -575.1578)" class="st3 st9">Web APIs</text>
</g>
<g transform="translate(5858.510184887946 1539.484954311587) rotate(0 217.0625 57.34765625)">
	<path class="st0" d="M8335.4,14.6c497.7,0,995.4,0,1302.4,0 M9637.8,14.6c0,116.3,0,232.5,0,344.1 M9637.8,358.7
		c-274.3,0-548.5,0-1302.4,0 M8335.4,358.7c0-73.4,0-146.7,0-344.1"/>
</g>
<g transform="translate(5959.072684887946 1573.832610561587) rotate(0 116.5 22.5)">
	<text transform="matrix(1 0 0 1 8537.3896 179.3266)" class="st3 st11">LocalStorage</text>
</g>
<text transform="matrix(1 0 0 1 392.1945 800.7637)" class="st25"><tspan x="0" y="0" class="st3 st26">Docker</tspan><tspan x="0" y="346.1" class="st3 st26">Compose</tspan><tspan x="0" y="692.2" class="st3 st26">Container</tspan></text>
<g>
	<g transform="translate(655.7522856068213 3469.237737817083) rotate(0 0 -1385.3496546522051)">
		<path class="st6" d="M-272,7118.8c0-1472.5,0-7362.4,0-8834.9 M-272,7118.8c0-1472.5,0-7362.4,0-8834.9"/>
	</g>
</g>
<g>
	<g transform="translate(658.5624587869252 697.2533949921826) rotate(0 71.45417557481733 0)">
		<path class="st6" d="M-266.4,1574.8c71.5,0,357.3,0,428.7,0 M-266.4,1574.8c71.5,0,357.3,0,428.7,0"/>
	</g>
</g>
<g>
	<g transform="translate(814.421849758889 696.2980123929535) rotate(0 2432.9059984914843 0)">
		<path class="st10" d="M45.4,1572.9c2432.9,0,12164.5,0,14597.4,0"/>
	</g>
</g>
<g>
	<g transform="translate(5691.163883494159 694.9915260152025) rotate(0 0 1388.5091145833333)">
		<path class="st10" d="M9798.8,1570.3c0,1388.5,0,6942.5,0,8331.1"/>
	</g>
</g>
<g>
	<g transform="translate(814.421849758889 3470.0403335813517) rotate(0 2432.9059984914843 0)">
		<path class="st10" d="M45.4,7120.4c2432.9,0,12164.5,0,14597.4,0"/>
	</g>
</g>
<g transform="translate(2376.0374538684478 1583.2386713583023) rotate(0 38.08268229166674 38.08268229166674)">
	<path class="st6" d="M3397.1,3461.1c0,6-0.5,12-1.4,17.9c-0.9,5.9-2.3,11.8-4.2,17.4c-1.8,5.7-4.1,11.2-6.9,16.6
		c-2.7,5.3-5.9,10.5-9.4,15.3c-3.5,4.8-7.4,9.4-11.6,13.6c-4.2,4.2-8.8,8.1-13.6,11.6c-4.8,3.5-10,6.7-15.3,9.4
		c-5.3,2.7-10.9,5-16.6,6.9c-5.7,1.9-11.6,3.3-17.4,4.2c-5.9,0.9-11.9,1.4-17.9,1.4c-5.9,0-12-0.5-17.9-1.4
		c-5.9-0.9-11.8-2.3-17.5-4.2c-5.6-1.8-11.2-4.1-16.6-6.9c-5.3-2.7-10.5-5.9-15.3-9.4c-4.8-3.5-9.4-7.4-13.6-11.6
		c-4.2-4.2-8.1-8.8-11.6-13.6c-3.5-4.8-6.7-10-9.4-15.3c-2.7-5.3-5-10.9-6.9-16.6c-1.8-5.7-3.2-11.6-4.2-17.4
		c-0.9-5.9-1.4-11.9-1.4-17.9c0-5.9,0.5-12,1.4-17.8c0.9-5.9,2.3-11.8,4.2-17.5c1.9-5.6,4.2-11.2,6.9-16.6
		c2.7-5.3,5.9-10.5,9.4-15.3c3.5-4.8,7.4-9.4,11.6-13.7c4.2-4.2,8.8-8.1,13.6-11.6c4.8-3.5,10-6.7,15.3-9.4c5.3-2.7,10.9-5,16.6-6.9
		c5.7-1.8,11.6-3.2,17.5-4.2c5.9-0.9,11.9-1.4,17.9-1.4c6,0,12,0.5,17.9,1.4c5.9,0.9,11.8,2.3,17.4,4.2c5.7,1.9,11.2,4.2,16.6,6.9
		c5.3,2.7,10.5,5.9,15.3,9.4c4.8,3.5,9.4,7.4,13.6,11.6c4.2,4.2,8.1,8.8,11.6,13.7c3.5,4.8,6.7,10,9.4,15.3c2.7,5.3,5,10.9,6.9,16.6
		c1.9,5.7,3.3,11.6,4.2,17.5C3396.6,3449.1,3396.9,3458.1,3397.1,3461.1C3397.3,3464.1,3397.3,3458.1,3397.1,3461.1"/>
</g>
<g transform="translate(2397.804329281787 1603.7397721636023) rotate(0 17 17)">
	<text transform="matrix(1 0 0 1 3213.8975 3468.813)" class="st12 st4">w2</text>
</g>
<g transform="translate(2489.8358169636854 1583.3056356440165) rotate(0 38.08268229166674 38.08268229166674)">
	<path class="st6" d="M3624.7,3461.2c0,6-0.5,12-1.4,17.9c-0.9,5.9-2.3,11.8-4.2,17.4c-1.8,5.7-4.1,11.2-6.9,16.6
		c-2.7,5.3-5.9,10.5-9.4,15.3c-3.5,4.8-7.4,9.4-11.6,13.6c-4.2,4.2-8.8,8.1-13.6,11.6c-4.8,3.5-10,6.7-15.3,9.4
		c-5.3,2.7-10.9,5-16.6,6.9c-5.7,1.9-11.6,3.3-17.4,4.2c-5.9,0.9-11.9,1.4-17.9,1.4c-5.9,0-12-0.5-17.9-1.4
		c-5.9-0.9-11.8-2.3-17.5-4.2c-5.6-1.8-11.2-4.1-16.6-6.9c-5.3-2.7-10.5-5.9-15.3-9.4c-4.8-3.5-9.4-7.4-13.6-11.6
		c-4.2-4.2-8.1-8.8-11.6-13.6c-3.5-4.8-6.7-10-9.4-15.3c-2.7-5.3-5-10.9-6.9-16.6c-1.8-5.7-3.2-11.6-4.2-17.4
		c-0.9-5.9-1.4-11.9-1.4-17.9c0-5.9,0.5-12,1.4-17.8c0.9-5.9,2.3-11.8,4.2-17.5c1.9-5.6,4.2-11.2,6.9-16.6
		c2.7-5.3,5.9-10.5,9.4-15.3c3.5-4.8,7.4-9.4,11.6-13.7c4.2-4.2,8.8-8.1,13.6-11.6c4.8-3.5,10-6.7,15.3-9.4c5.3-2.7,10.9-5,16.6-6.9
		c5.7-1.8,11.6-3.2,17.5-4.2c5.9-0.9,11.9-1.4,17.9-1.4c6,0,12,0.5,17.9,1.4c5.9,0.9,11.8,2.3,17.4,4.2c5.7,1.9,11.2,4.2,16.6,6.9
		c5.3,2.7,10.5,5.9,15.3,9.4c4.8,3.5,9.4,7.4,13.6,11.6c4.2,4.2,8.1,8.8,11.6,13.7c3.5,4.8,6.7,10,9.4,15.3c2.7,5.3,5,10.9,6.9,16.6
		c1.9,5.7,3.3,11.6,4.2,17.5C3624.2,3449.2,3624.4,3458.2,3624.7,3461.2C3624.9,3464.2,3624.9,3458.2,3624.7,3461.2"/>
</g>
<g transform="translate(2511.602692377025 1603.8067364493168) rotate(0 17 17)">
	<text transform="matrix(1 0 0 1 3441.4946 3468.9473)" class="st12 st4">w3</text>
</g>
<g transform="translate(2603.5114122017812 1583.2386713583023) rotate(0 38.08268229166674 38.08268229166674)">
	<path class="st6" d="M3852,3461.1c0,6-0.5,12-1.4,17.9c-0.9,5.9-2.3,11.8-4.2,17.4c-1.8,5.7-4.1,11.2-6.9,16.6
		c-2.7,5.3-5.9,10.5-9.4,15.3c-3.5,4.8-7.4,9.4-11.6,13.6c-4.2,4.2-8.8,8.1-13.6,11.6c-4.8,3.5-10,6.7-15.3,9.4
		c-5.3,2.7-10.9,5-16.6,6.9c-5.7,1.9-11.6,3.3-17.4,4.2c-5.9,0.9-11.9,1.4-17.9,1.4c-5.9,0-12-0.5-17.9-1.4
		c-5.9-0.9-11.8-2.3-17.5-4.2c-5.6-1.8-11.2-4.1-16.6-6.9c-5.3-2.7-10.5-5.9-15.3-9.4c-4.8-3.5-9.4-7.4-13.6-11.6
		c-4.2-4.2-8.1-8.8-11.6-13.6c-3.5-4.8-6.7-10-9.4-15.3c-2.7-5.3-5-10.9-6.9-16.6c-1.8-5.7-3.2-11.6-4.2-17.4
		c-0.9-5.9-1.4-11.9-1.4-17.9c0-5.9,0.5-12,1.4-17.8c0.9-5.9,2.3-11.8,4.2-17.5c1.9-5.6,4.2-11.2,6.9-16.6
		c2.7-5.3,5.9-10.5,9.4-15.3c3.5-4.8,7.4-9.4,11.6-13.7c4.2-4.2,8.8-8.1,13.6-11.6c4.8-3.5,10-6.7,15.3-9.4c5.3-2.7,10.9-5,16.6-6.9
		c5.7-1.8,11.6-3.2,17.5-4.2c5.9-0.9,11.9-1.4,17.9-1.4c6,0,12,0.5,17.9,1.4c5.9,0.9,11.8,2.3,17.4,4.2c5.7,1.9,11.2,4.2,16.6,6.9
		c5.3,2.7,10.5,5.9,15.3,9.4c4.8,3.5,9.4,7.4,13.6,11.6c4.2,4.2,8.1,8.8,11.6,13.7c3.5,4.8,6.7,10,9.4,15.3c2.7,5.3,5,10.9,6.9,16.6
		c1.9,5.7,3.3,11.6,4.2,17.5C3851.6,3449.1,3851.8,3458.1,3852,3461.1C3852.3,3464.1,3852.3,3458.1,3852,3461.1"/>
</g>
<g transform="translate(2625.2782876151205 1603.7397721636023) rotate(0 17 17)">
	<text transform="matrix(1 0 0 1 3668.8455 3468.813)" class="st12 st4">wN</text>
</g>
<g>
	<g transform="translate(1350.505614872544 2017.208415896155) rotate(0 -217.81640625 485.3671875)">
		<path class="st0" d="M1117.5,4214.8c-42.5,7.1-156.3,11.7-255,42.9c-98.7,31.2-238.9,88.9-337.1,144.2
			c-98.2,55.3-180.5,123.3-252.1,187.8c-71.6,64.5-123.7,127.9-177.4,199.2c-53.7,71.3-104.7,147.1-145,228.6
			c-40.3,81.5-73.7,169.8-97,260.5c-23.2,90.7-34.9,207.8-42.3,283.5c-7.4,75.7-5.5,106.8-2.1,170.6c3.4,63.7,10.3,145.8,22.6,211.9
			c12.3,66.1,29.7,121.6,51.2,184.6c21.5,62.9,43.3,125.3,77.9,193S51.5,6477.1,91,6534.5c39.5,57.4,67.5,88.2,107.2,131.4
			c39.7,43.2,86.7,90.1,130.8,127.7c44.1,37.5,88.6,67.2,134,97.5s91.3,59.2,138.7,84.1c47.4,24.9,84.6,43.8,145.5,65.2
			c60.9,21.4,157.5,48.6,219.9,63c62.4,14.4,128.7,19.6,154.5,23.6"/>
	</g>
</g>
</svg>
